<svg width="108" height="52" viewBox="0 0 108 52" fill="none" xmlns="http://www.w3.org/2000/svg">
<path d="M13.3 45.55C11.62 45.55 10.31 45.08 9.39 44.15C8.47 43.22 8 41.9 8 40.23V33.33C8 31.66 8.47 30.34 9.39 29.41C10.31 28.48 11.63 28.01 13.3 28.01H27.89C28.56 28.01 28.98 28.42 28.98 29.08V30.17C28.98 30.84 28.56 31.26 27.89 31.26H13.92C13.11 31.26 12.51 31.45 12.12 31.84C11.73 32.22 11.54 32.82 11.54 33.62V35.15H26.01C26.68 35.15 27.1 35.56 27.1 36.22V37.33C27.1 37.99 26.68 38.4 26.01 38.4H11.54V39.96C11.54 40.76 11.74 41.36 12.12 41.74C12.51 42.12 13.11 42.32 13.92 42.32H27.89C28.56 42.32 28.98 42.74 28.98 43.41V44.5C28.98 45.16 28.56 45.57 27.89 45.57H13.3V45.55Z" fill="#FFE418"/>
<path d="M36.76 45.55C35.08 45.55 33.77 45.08 32.85 44.15C31.93 43.22 31.46 41.9 31.46 40.23V33.33C31.46 31.66 31.93 30.34 32.85 29.41C33.77 28.48 35.09 28.01 36.76 28.01H50.99C51.65 28.01 52.06 28.42 52.06 29.08V30.17C52.06 30.84 51.65 31.26 50.99 31.26H37.37C36.56 31.26 35.96 31.45 35.57 31.84C35.18 32.22 34.99 32.82 34.99 33.62V39.96C34.99 40.76 35.19 41.36 35.57 41.74C35.96 42.12 36.56 42.32 37.37 42.32H50.99C51.65 42.32 52.06 42.74 52.06 43.41V44.5C52.06 45.16 51.65 45.57 50.99 45.57H36.76V45.55Z" fill="#FFE418"/>
<path d="M59.8399 45.55C58.1599 45.55 56.8499 45.08 55.9299 44.15C55.0099 43.22 54.5399 41.9 54.5399 40.23V33.33C54.5399 31.66 55.0099 30.34 55.9299 29.41C56.8499 28.48 58.1699 28.01 59.8399 28.01H74.0799C74.7399 28.01 75.1499 28.42 75.1499 29.08V30.17C75.1499 30.84 74.7399 31.26 74.0799 31.26H60.4599C59.6499 31.26 59.0499 31.45 58.6599 31.84C58.2699 32.22 58.0799 32.82 58.0799 33.62V39.96C58.0799 40.76 58.2799 41.36 58.6599 41.74C59.0499 42.12 59.6599 42.32 60.4599 42.32H74.0799C74.7399 42.32 75.1499 42.74 75.1499 43.41V44.5C75.1499 45.16 74.7399 45.57 74.0799 45.57H59.8399V45.55Z" fill="#FFE418"/>
<path d="M82.91 45.55C81.23 45.55 79.92 45.08 79 44.15C78.08 43.22 77.61 41.9 77.61 40.23V33.33C77.61 31.66 78.08 30.34 79 29.41C79.92 28.48 81.24 28.01 82.91 28.01H94.19C95.88 28.01 97.21 28.48 98.13 29.41C99.05 30.34 99.52 31.66 99.52 33.33V40.23C99.52 41.91 99.05 43.23 98.13 44.15C97.21 45.08 95.88 45.55 94.19 45.55H82.91ZM83.53 31.25C82.72 31.25 82.12 31.44 81.73 31.83C81.34 32.21 81.15 32.81 81.15 33.61V39.95C81.15 40.75 81.35 41.35 81.73 41.73C82.12 42.11 82.73 42.31 83.53 42.31H93.6C95.23 42.31 95.96 41.58 95.96 39.95V33.61C95.96 31.98 95.23 31.25 93.6 31.25H83.53Z" fill="#FFE418"/>
<path d="M25.24 23.56C24.73 23.56 24.48 23.24 24.42 22.94C24.36 22.64 24.44 22.34 24.65 22.09L36.85 9.14001H22.04C21.41 9.14001 21 8.73001 21 8.10001V7.08001C21 6.42001 21.4 6.01001 22.04 6.01001H40.63C41.29 6.01001 41.7 6.42001 41.7 7.08001V7.93001C41.7 8.19001 41.65 8.42001 41.56 8.63001C41.47 8.83001 41.34 9.02001 41.17 9.18001L28.39 22.95C28.19 23.17 27.98 23.33 27.78 23.42C27.57 23.51 27.31 23.56 26.99 23.56H25.24Z" fill="white"/>
<path d="M47.2999 23.56C46.7899 23.56 46.5399 23.24 46.4799 22.94C46.4199 22.64 46.4999 22.34 46.7099 22.09L58.9099 9.13H44.1099C43.4799 9.13 43.0699 8.72 43.0699 8.09V7.07C43.0699 6.41 43.4699 6 44.1099 6H62.6999C63.3599 6 63.7699 6.41 63.7699 7.07V7.92C63.7699 8.18 63.7199 8.41 63.6299 8.62C63.5399 8.82 63.4099 9.01 63.2399 9.17L50.4599 22.94C50.2599 23.16 50.0499 23.32 49.8499 23.41C49.6399 23.5 49.3799 23.55 49.0599 23.55H47.3099L47.2999 23.56Z" fill="white"/>
<path d="M69.36 23.56C68.85 23.56 68.6 23.24 68.54 22.94C68.48 22.64 68.56 22.34 68.77 22.09L80.97 9.13H66.17C65.54 9.13 65.13 8.72 65.13 8.09V7.07C65.13 6.41 65.53 6 66.17 6H84.76C85.42 6 85.83 6.41 85.83 7.07V7.92C85.83 8.18 85.78 8.41 85.69 8.62C85.6 8.82 85.47 9.01 85.3 9.17L72.52 22.94C72.32 23.16 72.11 23.32 71.91 23.41C71.7 23.5 71.44 23.55 71.12 23.55H69.37L69.36 23.56Z" fill="white"/>
</svg>
