<svg xmlns="http://www.w3.org/2000/svg" id="Layer_2" data-name="Layer 2" viewBox="0 0 115.26 85.86">
  <defs>
    <style>
      .cls-1 {
        fill: #fff;
      }

      .cls-2 {
        opacity: .4;
      }
    </style>
  </defs>
  <g id="Layer_1-2" data-name="Layer 1">
    <g>
      <g class="cls-2">
        <path class="cls-1" d="M49.99,26.74c-.47-.31-.88-.67-1.26-1.07-1.42-1.51-2.2-3.32-2.38-5.41-.14-1.68.17-3.29.81-4.83,1.98-4.7,5.41-7.63,10.23-8.84,1.65-.41,3.33-.55,5.02-.43,4.04.29,7.61,1.75,10.67,4.5,2.92,2.63,4.82,5.92,5.86,9.75.62,2.28.84,4.61.69,6.98-.04.66-.12,1.32-.19,1.98h-.06c0-.4.02-.8,0-1.19-.17-3.76-1.46-7.12-3.58-10.14-1.54-2.19-3.42-4-5.66-5.41-2.16-1.36-4.48-2.26-7.01-2.51-3.55-.35-6.86.38-9.81,2.52-2.37,1.72-3.89,4.05-4.53,6.96-.36,1.63-.34,3.29.05,4.93.18.76.54,1.43,1.05,2.02.03.04.07.08.1.12,0,0,0,.02,0,.06Z"></path>
        <path class="cls-1" d="M75.84,9.95c-.46-.4-.9-.81-1.37-1.2-2.48-2.06-5.24-3.55-8.36-4.28-1.75-.41-3.52-.53-5.31-.43-1.65.09-3.27.35-4.84.91-2.13.76-4.04,1.94-5.76,3.45-2.52,2.22-4.13,5.02-4.81,8.34-.93,4.59.39,8.45,3.84,11.51.83.74,1.82,1.21,2.83,1.63.43.17.86.34,1.29.51,0,.02,0,.04,0,.06-.71-.04-1.43-.04-2.13-.13-1.11-.14-2.2-.43-3.2-.94-2.22-1.14-3.87-2.87-4.98-5.15-1.06-2.17-1.5-4.47-1.32-6.88.33-4.44,2.12-8.17,5.23-11.23,2.07-2.04,4.56-3.34,7.32-4.12,1.97-.55,3.98-.78,6.02-.67,2.83.15,5.52.89,8.05,2.21,2.87,1.5,5.27,3.6,7.32,6.15.07.09.14.18.22.27,0,0-.02.01-.02.02Z"></path>
        <path class="cls-1" d="M34.54,10.73c-.15.47-.3.91-.43,1.36-.59,2.04-.79,4.13-.66,6.26.26,4.01,1.63,7.59,4,10.75,2.13,2.84,4.83,4.92,8.17,6.04,1.68.56,3.41.85,5.18.74,1.76-.11,3.39-.65,4.91-1.55,1.87-1.11,3.39-2.59,4.47-4.52.83-1.47,1.29-3.07,1.41-4.77.03-.39.04-.79.11-1.2.1.41.25.82.31,1.24.5,3.45-.31,6.58-2.29,9.38-1.88,2.66-4.47,4.2-7.55,4.88-4.24.94-8.21.16-11.89-2.17-3.4-2.15-5.86-5.14-7.34-8.96-1.01-2.61-1.4-5.33-1.22-8.14.2-3.02,1.02-5.85,2.37-8.53.13-.25.26-.51.39-.76,0-.02.02-.03.05-.07Z"></path>
        <path class="cls-1" d="M51.6,0c-.59.28-1.15.53-1.69.81-1.81.95-3.52,2.07-5,3.52-1.85,1.83-3.16,4.02-4.02,6.5-.79,2.26-1.19,4.6-1.14,7.01.06,2.89.78,5.58,2.32,8.02.85,1.33,1.92,2.43,3.15,3.39,1.21.94,2.5,1.72,3.96,2.16,3.3.99,6.37.48,9.17-1.6.03-.02.05-.04.1-.04-.04.06-.08.12-.12.19-.91,1.34-2.13,2.28-3.51,3.04-1.83,1.02-3.78,1.43-5.85,1.28-1.74-.13-3.37-.65-4.88-1.54-4.13-2.44-6.72-6.08-7.79-10.84-.88-3.89-.32-7.64,1.26-11.25,1.26-2.88,3.15-5.25,5.63-7.11,1.07-.8,2.25-1.37,3.47-1.87,1.57-.65,3.19-1.15,4.81-1.63.03,0,.06-.01.13-.03Z"></path>
        <path class="cls-1" d="M49.74,19.78c.71-2.69,2.13-4.77,4.42-6.19,1.67-1.03,3.46-1.64,5.4-1.8,3.41-.29,6.5.63,9.31,2.61,3.12,2.2,5.27,5.19,6.67,8.78.85,2.17,1.28,4.42,1.23,6.76-.07,3.4-1.06,6.49-2.88,9.31-1.14,1.76-2.56,3.27-4.11,4.65-.46.41-.95.8-1.42,1.21-.03.03-.07.05-.09.09.18-.2.35-.42.54-.61,2.4-2.4,3.87-5.33,4.64-8.67.41-1.77.53-3.58.38-5.39-.19-2.3-.83-4.47-1.78-6.55-1.22-2.66-2.99-4.86-5.31-6.57-1.8-1.34-3.81-2.19-6-2.57-1.11-.19-2.23-.15-3.34,0-1.42.18-2.77.59-3.99,1.36-1.41.89-2.6,2.05-3.57,3.44-.03.04-.05.07-.1.15Z"></path>
        <path class="cls-1" d="M60.25,18.73c.52.2.95.47,1.35.8,2.17,1.84,3.55,4.16,4.14,7,.29,1.38.43,2.77.34,4.18-.13,1.88-.63,3.67-1.48,5.33-2.38,4.63-6.06,7.53-11.03,8.62-4.42.97-8.54.07-12.37-2.37-2.07-1.32-3.74-3.08-5.15-5.1-.62-.9-1.2-1.83-1.8-2.74-.02-.02-.03-.05-.06-.12.44.51.85,1,1.27,1.46,1.33,1.47,2.78,2.79,4.52,3.74,1.93,1.05,3.97,1.77,6.13,2.05,3.1.41,6.12.1,8.96-1.31,3.87-1.92,6.55-4.98,7.94-9.19.53-1.6.67-3.26.58-4.94-.06-1.14-.19-2.27-.56-3.35-.53-1.56-1.35-2.91-2.65-3.92-.03-.02-.05-.04-.07-.06,0,0-.02-.02-.05-.07Z"></path>
        <path class="cls-1" d="M50.69,47.83c.35-.02.69-.05,1.04-.07,2.16-.17,4.24-.66,6.18-1.66,4.5-2.31,7.63-5.92,9.13-10.87,1.52-5.02.69-9.72-2.34-13.95-1.62-2.26-3.79-3.77-6.48-4.38-.78-.18-1.59-.24-2.39-.35-.06,0-.12-.01-.18-.02v-.05c.36-.09.72-.21,1.09-.27,1.69-.27,3.37-.24,5.03.22,1.41.39,2.64,1.13,3.78,2.05.98.8,1.92,1.65,2.69,2.66,1.01,1.32,1.7,2.82,2.27,4.39.69,1.89,1.04,3.84.98,5.86-.12,4.05-1.43,7.63-4.03,10.67-2.46,2.89-5.59,4.62-9.21,5.45-2.2.5-4.43.58-6.66.41-.29-.02-.59-.04-.88-.06,0-.01,0-.02,0-.03Z"></path>
      </g>
      <g class="cls-2">
        <g>
          <path class="cls-1" d="M2.6,85.86c-.52,0-.95-.09-1.29-.27-.33-.18-.6-.41-.8-.68-.2-.27-.33-.57-.41-.9-.08-.32-.11-.63-.11-.92v-4.36h.71v4.28c0,.28.03.55.1.82.07.27.17.5.32.71.15.21.34.37.58.5.24.13.54.19.89.19s.65-.06.89-.19c.24-.13.44-.29.58-.5.15-.21.25-.44.32-.71.07-.26.1-.54.1-.82v-4.28h.71v4.36c0,.29-.04.59-.11.92-.08.32-.21.62-.41.9-.2.28-.46.5-.8.68-.34.18-.76.27-1.28.27Z"></path>
          <path class="cls-1" d="M7.57,81.09c.01.12.02.26.03.41,0,.15,0,.27,0,.37h.02c.13-.27.34-.49.64-.65s.61-.25.93-.25c.58,0,1.02.17,1.31.52.29.35.44.8.44,1.37v2.82h-.67v-2.54c0-.24-.02-.46-.06-.66-.04-.2-.11-.36-.2-.51-.1-.14-.22-.25-.38-.33-.16-.08-.36-.12-.6-.12-.18,0-.35.04-.52.11-.17.07-.32.18-.45.33s-.24.33-.31.56-.12.49-.12.8v2.36h-.67v-3.58c0-.12,0-.28,0-.48,0-.2-.02-.37-.03-.53h.64Z"></path>
          <path class="cls-1" d="M13.36,85.68h-.67v-7.42h.67v7.42Z"></path>
          <path class="cls-1" d="M19.71,83.38c0,.35-.06.67-.18.96-.12.29-.29.55-.51.77-.22.22-.47.38-.78.51s-.63.18-.99.18-.68-.06-.98-.18-.56-.29-.78-.51c-.22-.22-.38-.47-.51-.77-.12-.29-.18-.62-.18-.96s.06-.67.18-.96c.12-.29.29-.55.51-.77.22-.22.47-.38.78-.51.3-.12.63-.18.98-.18s.69.06.99.18c.3.12.56.29.78.51.22.22.38.47.51.77.12.29.18.62.18.96ZM19,83.38c0-.26-.04-.5-.12-.72-.08-.23-.2-.42-.35-.59-.15-.17-.33-.3-.55-.4s-.46-.15-.73-.15-.51.05-.72.15c-.21.1-.39.23-.54.4-.15.17-.27.36-.35.59-.08.23-.12.47-.12.72s.04.5.12.72c.08.23.2.42.35.59.15.17.33.3.54.39.21.1.45.14.72.14s.51-.05.73-.14c.22-.09.4-.23.55-.39.15-.17.27-.36.35-.59.08-.23.12-.47.12-.72Z"></path>
          <path class="cls-1" d="M24.45,82.14c-.11-.18-.27-.32-.49-.44-.21-.11-.44-.17-.69-.17-.27,0-.51.05-.73.14-.22.09-.4.23-.55.39-.15.17-.27.36-.35.59-.08.23-.12.47-.12.73s.04.5.12.73c.08.22.2.42.35.58.15.17.33.3.55.39.22.1.46.14.73.14.29,0,.54-.06.75-.17.2-.11.37-.26.5-.43l.5.37c-.2.24-.44.44-.72.58-.28.14-.63.22-1.03.22-.37,0-.71-.06-1.01-.18-.3-.12-.56-.29-.77-.51-.21-.22-.38-.47-.5-.77-.12-.29-.18-.62-.18-.96s.06-.67.18-.96c.12-.29.28-.55.5-.77s.47-.38.77-.51c.3-.12.64-.18,1.01-.18.31,0,.62.07.94.2.32.13.57.33.77.59l-.52.37Z"></path>
          <path class="cls-1" d="M26.74,83.16h.03l2.12-2.07h.96l-2.32,2.1,2.55,2.49h-.98l-2.34-2.41h-.03v2.41h-.67v-7.42h.67v4.9Z"></path>
          <path class="cls-1" d="M35.7,85.68h-.71v-2.99l-2.6-3.96h.88l2.09,3.37,2.11-3.37h.82l-2.6,3.96v2.99Z"></path>
          <path class="cls-1" d="M42.86,83.38c0,.35-.06.67-.18.96-.12.29-.29.55-.51.77-.22.22-.47.38-.78.51s-.63.18-.99.18-.68-.06-.98-.18-.56-.29-.78-.51c-.22-.22-.38-.47-.51-.77-.12-.29-.18-.62-.18-.96s.06-.67.18-.96c.12-.29.29-.55.51-.77.22-.22.47-.38.78-.51.3-.12.63-.18.98-.18s.69.06.99.18c.3.12.56.29.78.51.22.22.38.47.51.77.12.29.18.62.18.96ZM42.16,83.38c0-.26-.04-.5-.12-.72-.08-.23-.2-.42-.35-.59-.15-.17-.33-.3-.55-.4s-.46-.15-.73-.15-.51.05-.72.15c-.21.1-.39.23-.54.4-.15.17-.27.36-.35.59-.08.23-.12.47-.12.72s.04.5.12.72c.08.23.2.42.35.59.15.17.33.3.54.39.21.1.45.14.72.14s.51-.05.73-.14c.22-.09.4-.23.55-.39.15-.17.27-.36.35-.59.08-.23.12-.47.12-.72Z"></path>
          <path class="cls-1" d="M47.63,85.68c-.01-.12-.02-.26-.03-.41s0-.27,0-.37h-.02c-.13.27-.34.49-.64.65-.29.17-.6.25-.93.25-.58,0-1.02-.17-1.31-.52-.29-.35-.44-.8-.44-1.37v-2.82h.67v2.54c0,.24.02.46.06.66.04.2.11.37.2.51s.22.25.38.33c.16.08.36.12.6.12.18,0,.35-.04.52-.11s.32-.18.45-.33c.13-.15.24-.33.31-.56.08-.23.12-.49.12-.8v-2.36h.67v3.58c0,.12,0,.28.01.48,0,.2.02.37.03.53h-.64Z"></path>
          <path class="cls-1" d="M49.99,81.62c0-.2-.02-.37-.03-.53h.64c.01.12.02.26.03.41s.01.27.01.37h.02c.13-.27.33-.49.59-.65.26-.17.56-.25.88-.25.09,0,.16,0,.23,0,.07,0,.14.02.21.04l-.09.64s-.1-.03-.2-.04-.18-.02-.27-.02c-.18,0-.35.03-.51.1-.16.07-.31.17-.43.31-.12.14-.22.32-.29.54-.08.22-.11.48-.11.79v2.35h-.67v-3.58c0-.12,0-.28,0-.48Z"></path>
          <path class="cls-1" d="M56.73,85.68h-.71v-6.95h4.19v.63h-3.48v2.4h3.24v.63h-3.24v3.29Z"></path>
          <path class="cls-1" d="M65.6,83.38c0,.35-.06.67-.18.96-.12.29-.29.55-.51.77-.22.22-.47.38-.78.51s-.63.18-.99.18-.68-.06-.98-.18-.56-.29-.78-.51c-.22-.22-.38-.47-.51-.77-.12-.29-.18-.62-.18-.96s.06-.67.18-.96c.12-.29.29-.55.51-.77.22-.22.47-.38.78-.51.3-.12.63-.18.98-.18s.69.06.99.18c.3.12.56.29.78.51.22.22.38.47.51.77.12.29.18.62.18.96ZM64.89,83.38c0-.26-.04-.5-.12-.72-.08-.23-.2-.42-.35-.59-.15-.17-.33-.3-.55-.4s-.46-.15-.73-.15-.51.05-.72.15c-.21.1-.39.23-.54.4-.15.17-.27.36-.35.59-.08.23-.12.47-.12.72s.04.5.12.72c.08.23.2.42.35.59.15.17.33.3.54.39.21.1.45.14.72.14s.51-.05.73-.14c.22-.09.4-.23.55-.39.15-.17.27-.36.35-.59.08-.23.12-.47.12-.72Z"></path>
          <path class="cls-1" d="M67.02,81.62c0-.2-.02-.37-.03-.53h.64c.01.12.02.26.03.41s.01.27.01.37h.02c.13-.27.33-.49.59-.65.26-.17.56-.25.88-.25.09,0,.16,0,.23,0,.07,0,.14.02.21.04l-.09.64s-.1-.03-.2-.04-.18-.02-.27-.02c-.18,0-.35.03-.51.1-.16.07-.31.17-.43.31-.12.14-.22.32-.29.54-.08.22-.11.48-.11.79v2.35h-.67v-3.58c0-.12,0-.28,0-.48Z"></path>
          <path class="cls-1" d="M72.52,81.65h-1.3v2.68c0,.17.02.31.05.42.03.11.08.2.14.26.06.06.14.1.22.13.08.02.18.03.27.03.09,0,.19-.01.29-.04.1-.03.2-.06.29-.11l.03.58c-.12.05-.24.08-.37.1-.13.02-.27.03-.42.03-.12,0-.26-.02-.39-.05-.14-.03-.27-.1-.38-.19-.12-.09-.21-.22-.29-.37s-.11-.36-.11-.62v-2.87h-.95v-.56h.95v-1.3h.67v1.3h1.3v.56Z"></path>
          <path class="cls-1" d="M76.89,85.68c-.01-.12-.02-.26-.03-.41s0-.27,0-.37h-.02c-.13.27-.34.49-.64.65-.29.17-.6.25-.93.25-.58,0-1.02-.17-1.31-.52-.29-.35-.44-.8-.44-1.37v-2.82h.67v2.54c0,.24.02.46.06.66.04.2.11.37.2.51s.22.25.38.33c.16.08.36.12.6.12.18,0,.35-.04.52-.11s.32-.18.45-.33c.13-.15.24-.33.31-.56.08-.23.12-.49.12-.8v-2.36h.67v3.58c0,.12,0,.28.01.48,0,.2.02.37.03.53h-.64Z"></path>
          <path class="cls-1" d="M79.86,81.09c.01.12.02.26.03.41s.01.27.01.37h.02c.13-.27.34-.49.64-.65s.61-.25.93-.25c.58,0,1.02.17,1.31.52.29.35.44.8.44,1.37v2.82h-.67v-2.54c0-.24-.02-.46-.06-.66-.04-.2-.11-.36-.2-.51-.1-.14-.22-.25-.38-.33-.16-.08-.36-.12-.6-.12-.18,0-.35.04-.52.11s-.32.18-.45.33-.24.33-.31.56-.12.49-.12.8v2.36h-.67v-3.58c0-.12,0-.28,0-.48,0-.2-.02-.37-.03-.53h.64Z"></path>
          <path class="cls-1" d="M89.14,83.25v.15c0,.05,0,.11-.01.17h-3.81c0,.23.05.44.14.65.08.2.2.38.35.53.15.15.33.27.53.36.2.09.42.13.66.13.35,0,.65-.08.9-.24.25-.16.44-.35.57-.55l.5.39c-.27.35-.58.6-.91.75-.33.15-.69.23-1.06.23-.34,0-.66-.06-.95-.18-.29-.12-.54-.29-.75-.51-.21-.22-.37-.47-.5-.77-.12-.29-.18-.62-.18-.96s.06-.67.18-.96c.12-.29.28-.55.49-.77.21-.22.45-.38.74-.51.28-.12.59-.18.91-.18.36,0,.68.06.95.18.27.12.5.28.69.49s.32.45.42.72c.1.27.14.57.14.88ZM88.47,83.03c-.02-.43-.16-.79-.42-1.07-.26-.28-.63-.43-1.1-.43-.22,0-.43.04-.62.12-.19.08-.36.19-.5.33-.14.14-.26.3-.34.48-.08.18-.13.37-.15.56h3.13Z"></path>
        </g>
        <g>
          <polygon class="cls-1" points="9.35 64.36 5.14 64.36 5.14 59.15 0 59.15 0 74.51 5.16 74.51 5.16 68.67 9.37 68.67 9.37 74.51 14.54 74.51 14.54 59.15 9.35 59.15 9.35 64.36"></polygon>
          <path class="cls-1" d="M21.67,59.15l-6.05,15.36h5.47l.76-2.26h4.88l.8,2.26h5.62l-5.99-15.36h-5.49ZM23.08,68.3l1.26-3.8,1.24,3.8h-2.49Z"></path>
          <polygon class="cls-1" points="41.96 59.15 39.64 63.66 37.21 59.15 30.98 59.15 36.78 68.22 36.78 74.51 41.94 74.51 41.94 68.22 48.04 59.15 41.96 59.15"></polygon>
          <path class="cls-1" d="M51.92,59.15l-6.05,15.36h5.47l.76-2.26h4.88l.8,2.26h5.62l-5.99-15.36h-5.49ZM53.33,68.3l1.26-3.8,1.24,3.8h-2.49Z"></path>
          <g>
            <path class="cls-1" d="M69.79,63.11c.23-.11.54-.16.91-.16.4,0,.86.11,1.37.34.51.22.93.55,1.28.99l3.21-3.28c-.8-.74-1.72-1.3-2.77-1.69s-2.08-.59-3.09-.59c-.75,0-1.51.09-2.28.28-.77.19-1.46.5-2.07.92-.62.43-1.12.97-1.51,1.64-.39.67-.59,1.48-.59,2.43,0,.68.11,1.26.32,1.75.22.49.51.9.88,1.25.37.35.79.64,1.27.88.48.24.98.45,1.5.62.54.17.98.33,1.33.46.35.13.63.25.84.36.2.11.34.21.42.31.08.1.12.22.12.37,0,.28-.12.46-.36.57-.24.1-.5.15-.79.15-.64,0-1.26-.15-1.85-.46-.6-.3-1.08-.65-1.44-1.04l-3.15,3.42c.39.35.83.66,1.32.94.49.28,1.02.53,1.57.73.56.21,1.14.37,1.74.47.6.11,1.21.16,1.83.16.78,0,1.55-.11,2.3-.34s1.43-.56,2.03-1.02c.6-.46,1.08-1.03,1.45-1.71.37-.69.55-1.49.55-2.42,0-.8-.17-1.46-.5-2-.33-.53-.76-.99-1.27-1.36-.51-.37-1.07-.67-1.68-.9-.61-.23-1.19-.43-1.74-.61-.54-.17-.92-.32-1.16-.43-.24-.12-.36-.29-.36-.52,0-.25.12-.42.35-.53Z"></path>
            <path class="cls-1" d="M89.08,60.24c-.59-.4-1.27-.68-2.02-.85-.75-.17-1.52-.25-2.3-.25h-6.6v15.36h5.14v-4.95h1.45c.8,0,1.57-.09,2.33-.28.76-.19,1.43-.49,2.02-.91.59-.42,1.06-.96,1.41-1.63.35-.67.53-1.48.53-2.43s-.18-1.83-.54-2.48c-.36-.66-.84-1.19-1.43-1.58ZM85.47,65.34c-.33.2-.68.29-1.07.29h-1.08v-2.47h1.08c.19,0,.38.02.56.05.19.04.36.1.51.18.15.09.27.21.36.36.09.15.13.35.13.6,0,.46-.16.79-.49.99Z"></path>
            <polygon class="cls-1" points="110.36 59.15 110.57 66.94 110.49 66.94 106.1 59.15 100.96 59.15 100.96 74.51 105.87 74.51 105.65 67.18 105.73 67.18 109.99 74.51 115.26 74.51 115.26 59.15 110.36 59.15"></polygon>
            <rect class="cls-1" x="93.24" y="61.19" width="5.27" height="16.51"></rect>
            <path class="cls-1" d="M97.95,80.92c-.27-.25-.58-.46-.93-.61-.36-.15-.73-.23-1.13-.23s-.77.08-1.13.23c-.36.15-.66.36-.92.63-.26.27-.46.58-.61.93-.15.36-.22.73-.22,1.12,0,.41.08.78.24,1.13.16.35.37.65.62.92.26.27.56.47.9.61.35.14.72.21,1.11.21s.77-.08,1.13-.23c.36-.15.67-.36.93-.61.27-.25.47-.56.62-.92.15-.36.22-.74.22-1.15s-.07-.76-.22-1.12c-.15-.36-.36-.66-.62-.92Z"></path>
          </g>
        </g>
      </g>
    </g>
  </g>
</svg>