<?xml version="1.0" encoding="UTF-8"?>
<svg id="Layer_2" data-name="Layer 2" xmlns="http://www.w3.org/2000/svg" viewBox="0 0 196.63 48">
  <defs>
    <style>
      .cls-1 {
        fill: #eec727;
      }

      .cls-2 {
        fill: #fe3047;
      }

      .cls-3 {
        fill: #3579fc;
      }

      .cls-4 {
        fill: #ffbd02;
      }

      .cls-5 {
        fill: #e45ce6;
      }

      .cls-6 {
        fill: #ff8900;
      }

      .cls-7 {
        fill: #8e5bfa;
      }

      .cls-8 {
        fill: #6800e9;
      }
    </style>
  </defs>
  <g id="Layer_1-2" data-name="Layer 1">
    <g>
      <g>
        <path class="cls-5" d="M60.14,40.44c-.63,0-1.15-.11-1.56-.33-.4-.22-.73-.49-.96-.83-.24-.33-.4-.7-.49-1.09-.09-.39-.14-.76-.14-1.11v-5.28h.86v5.18c0,.34.04.67.12.99.08.32.21.61.39.86.18.25.41.45.71.61.29.15.65.23,1.08.23s.79-.08,1.08-.23c.29-.15.53-.36.71-.61.18-.25.31-.54.39-.86.08-.32.12-.65.12-.99v-5.18h.86v5.28c0,.35-.05.72-.14,1.11-.09.39-.26.75-.49,1.09-.24.33-.56.61-.97.83-.41.22-.93.33-1.55.33Z"/>
        <path class="cls-5" d="M66.16,34.66c.02.15.03.32.04.5,0,.18.01.33.01.45h.02c.16-.33.42-.59.77-.79s.73-.3,1.13-.3c.71,0,1.23.21,1.59.63.35.42.53.97.53,1.66v3.41h-.81v-3.08c0-.29-.02-.56-.07-.8-.05-.24-.13-.44-.24-.61-.12-.17-.27-.3-.46-.4-.19-.09-.44-.14-.73-.14-.21,0-.42.04-.62.13-.2.09-.38.22-.54.4s-.28.4-.38.68-.14.6-.14.97v2.85h-.81v-4.34c0-.15,0-.34-.01-.58,0-.24-.02-.45-.04-.64h.77Z"/>
        <path class="cls-5" d="M73.17,40.23h-.81v-8.99h.81v8.99Z"/>
        <path class="cls-5" d="M80.87,37.44c0,.42-.07.81-.22,1.17-.15.36-.35.67-.61.93-.26.26-.57.47-.94.61s-.77.22-1.2.22-.82-.07-1.19-.22-.68-.35-.94-.61c-.26-.26-.47-.57-.61-.93-.15-.36-.22-.75-.22-1.17s.07-.81.22-1.17c.15-.36.35-.67.61-.93.26-.26.57-.47.94-.61.36-.15.76-.22,1.19-.22s.84.07,1.2.22c.36.15.68.35.94.61.26.26.47.57.61.93.15.36.22.75.22,1.17ZM80.01,37.44c0-.31-.05-.6-.15-.87-.1-.27-.24-.51-.42-.71-.18-.2-.4-.36-.67-.48s-.55-.18-.88-.18-.62.06-.87.18c-.26.12-.48.28-.66.48-.18.2-.32.44-.42.71-.1.27-.15.56-.15.87s.05.6.15.87c.1.27.24.51.42.71.18.2.4.36.66.48.26.12.55.17.87.17s.62-.06.88-.17c.26-.11.48-.27.67-.48.18-.2.32-.44.42-.71.1-.27.15-.57.15-.87Z"/>
        <path class="cls-5" d="M86.61,35.93c-.13-.21-.33-.39-.59-.53-.26-.14-.54-.21-.84-.21-.33,0-.62.06-.88.17-.26.11-.49.27-.67.48-.19.2-.33.44-.43.71-.1.27-.15.57-.15.89s.05.61.15.88c.1.27.24.51.42.71.18.2.4.36.67.48.26.12.55.17.88.17.36,0,.66-.07.9-.2.25-.13.45-.31.61-.52l.61.45c-.24.29-.53.53-.87.7-.34.17-.76.26-1.24.26-.45,0-.86-.07-1.23-.22-.36-.15-.68-.35-.93-.61-.26-.26-.46-.57-.6-.93-.14-.36-.21-.75-.21-1.17s.07-.81.21-1.17c.14-.36.34-.67.6-.93s.57-.47.93-.61c.36-.15.77-.22,1.23-.22.37,0,.75.08,1.14.24.38.16.69.4.93.72l-.63.45Z"/>
        <path class="cls-5" d="M89.38,37.17h.04l2.57-2.51h1.17l-2.81,2.55,3.09,3.02h-1.19l-2.83-2.93h-.04v2.93h-.81v-8.99h.81v5.93Z"/>
        <path class="cls-5" d="M100.24,40.23h-.86v-3.63l-3.15-4.79h1.07l2.53,4.08,2.56-4.08h1l-3.15,4.79v3.63Z"/>
        <path class="cls-5" d="M108.92,37.44c0,.42-.07.81-.22,1.17-.15.36-.35.67-.61.93-.26.26-.57.47-.94.61s-.77.22-1.2.22-.82-.07-1.19-.22-.68-.35-.94-.61c-.26-.26-.47-.57-.61-.93-.15-.36-.22-.75-.22-1.17s.07-.81.22-1.17c.15-.36.35-.67.61-.93.26-.26.57-.47.94-.61.36-.15.76-.22,1.19-.22s.84.07,1.2.22c.36.15.68.35.94.61.26.26.47.57.61.93.15.36.22.75.22,1.17ZM108.06,37.44c0-.31-.05-.6-.15-.87-.1-.27-.24-.51-.42-.71-.18-.2-.4-.36-.67-.48s-.55-.18-.88-.18-.62.06-.87.18c-.26.12-.48.28-.66.48-.18.2-.32.44-.42.71-.1.27-.15.56-.15.87s.05.6.15.87c.1.27.24.51.42.71.18.2.4.36.66.48.26.12.55.17.87.17s.62-.06.88-.17c.26-.11.48-.27.67-.48.18-.2.32-.44.42-.71.1-.27.15-.57.15-.87Z"/>
        <path class="cls-5" d="M114.7,40.23c-.02-.15-.03-.32-.04-.5s-.01-.33-.01-.45h-.02c-.16.33-.42.59-.77.79-.36.2-.73.3-1.13.3-.71,0-1.23-.21-1.59-.63-.35-.42-.53-.97-.53-1.66v-3.41h.81v3.08c0,.29.02.56.07.8.05.24.13.44.24.61s.27.3.46.4c.19.1.44.14.73.14.21,0,.42-.04.62-.13s.38-.22.54-.4c.16-.18.29-.4.38-.68.1-.27.14-.6.14-.97v-2.85h.81v4.34c0,.15,0,.34.01.58,0,.24.02.45.04.64h-.77Z"/>
        <path class="cls-5" d="M117.55,35.3c0-.24-.02-.45-.04-.64h.77c.02.15.03.32.04.5s.01.33.01.45h.02c.16-.33.4-.59.71-.79.32-.2.67-.3,1.07-.3.1,0,.2,0,.28.01.08,0,.17.02.26.05l-.11.77s-.13-.03-.24-.05-.22-.02-.33-.02c-.21,0-.42.04-.62.12-.2.08-.37.2-.52.37-.15.17-.27.39-.36.65-.09.27-.14.58-.14.96v2.85h-.81v-4.34c0-.15,0-.34-.01-.58Z"/>
        <path class="cls-5" d="M125.72,40.23h-.86v-8.42h5.08v.76h-4.22v2.91h3.92v.76h-3.92v3.98Z"/>
        <path class="cls-5" d="M136.46,37.44c0,.42-.07.81-.22,1.17-.15.36-.35.67-.61.93-.26.26-.57.47-.94.61s-.77.22-1.2.22-.82-.07-1.19-.22-.68-.35-.94-.61c-.26-.26-.47-.57-.61-.93-.15-.36-.22-.75-.22-1.17s.07-.81.22-1.17c.15-.36.35-.67.61-.93.26-.26.57-.47.94-.61.36-.15.76-.22,1.19-.22s.84.07,1.2.22c.36.15.68.35.94.61.26.26.47.57.61.93.15.36.22.75.22,1.17ZM135.61,37.44c0-.31-.05-.6-.15-.87-.1-.27-.24-.51-.42-.71-.18-.2-.4-.36-.67-.48s-.55-.18-.88-.18-.62.06-.87.18c-.26.12-.48.28-.66.48-.18.2-.32.44-.42.71-.1.27-.15.56-.15.87s.05.6.15.87c.1.27.24.51.42.71.18.2.4.36.66.48.26.12.55.17.87.17s.62-.06.88-.17c.26-.11.48-.27.67-.48.18-.2.32-.44.42-.71.1-.27.15-.57.15-.87Z"/>
        <path class="cls-5" d="M138.19,35.3c0-.24-.02-.45-.04-.64h.77c.02.15.03.32.04.5s.01.33.01.45h.02c.16-.33.4-.59.71-.79.32-.2.67-.3,1.07-.3.1,0,.2,0,.28.01.08,0,.17.02.26.05l-.11.77s-.13-.03-.24-.05-.22-.02-.33-.02c-.21,0-.42.04-.62.12-.2.08-.37.2-.52.37-.15.17-.27.39-.36.65-.09.27-.14.58-.14.96v2.85h-.81v-4.34c0-.15,0-.34-.01-.58Z"/>
        <path class="cls-5" d="M144.85,35.34h-1.57v3.25c0,.21.02.38.06.51.04.13.1.24.17.32.08.07.16.13.27.15.1.03.21.04.33.04.11,0,.23-.02.35-.05.12-.03.24-.08.35-.13l.04.7c-.14.06-.29.1-.45.12-.15.03-.32.04-.51.04-.15,0-.31-.02-.48-.06-.17-.04-.32-.12-.46-.23-.14-.11-.26-.26-.35-.45s-.14-.44-.14-.75v-3.47h-1.15v-.68h1.15v-1.57h.81v1.57h1.57v.68Z"/>
        <path class="cls-5" d="M150.15,40.23c-.02-.15-.03-.32-.04-.5s-.01-.33-.01-.45h-.02c-.16.33-.42.59-.77.79-.36.2-.73.3-1.13.3-.71,0-1.23-.21-1.59-.63-.35-.42-.53-.97-.53-1.66v-3.41h.81v3.08c0,.29.02.56.07.8.05.24.13.44.24.61s.27.3.46.4c.19.1.44.14.73.14.21,0,.42-.04.62-.13s.38-.22.54-.4c.16-.18.29-.4.38-.68.1-.27.14-.6.14-.97v-2.85h.81v4.34c0,.15,0,.34.01.58,0,.24.02.45.04.64h-.77Z"/>
        <path class="cls-5" d="M153.74,34.66c.02.15.03.32.04.5s.01.33.01.45h.02c.16-.33.42-.59.77-.79s.73-.3,1.13-.3c.71,0,1.23.21,1.59.63.35.42.53.97.53,1.66v3.41h-.81v-3.08c0-.29-.02-.56-.07-.8-.05-.24-.13-.44-.24-.61-.12-.17-.27-.3-.46-.4-.19-.09-.44-.14-.73-.14-.21,0-.42.04-.62.13s-.38.22-.54.4-.29.4-.38.68-.14.6-.14.97v2.85h-.81v-4.34c0-.15,0-.34-.01-.58,0-.24-.02-.45-.04-.64h.77Z"/>
        <path class="cls-5" d="M164.99,37.28v.18c0,.06,0,.13-.01.2h-4.61c0,.28.06.54.17.78.1.25.24.46.43.64.18.18.4.33.64.43.24.11.51.16.8.16.42,0,.78-.1,1.09-.29.3-.19.54-.42.7-.67l.61.48c-.33.42-.7.72-1.1.9-.4.18-.83.27-1.29.27-.41,0-.8-.07-1.15-.22-.35-.15-.66-.35-.91-.61-.25-.26-.45-.57-.6-.93-.15-.36-.22-.75-.22-1.17s.07-.81.21-1.17c.14-.36.34-.67.6-.93.25-.26.55-.47.89-.61.34-.15.71-.22,1.11-.22.44,0,.82.07,1.15.22.33.15.61.34.83.59s.39.54.51.87c.12.33.17.69.17,1.07ZM164.17,37.02c-.02-.52-.19-.96-.51-1.3-.31-.34-.76-.52-1.34-.52-.27,0-.52.05-.75.15-.23.1-.43.23-.61.4-.17.17-.31.36-.42.58-.1.22-.16.45-.18.68h3.79Z"/>
      </g>
      <g>
        <g>
          <polygon class="cls-1" points="68.32 14.39 63.22 14.39 63.22 8.08 56.99 8.08 56.99 26.69 63.25 26.69 63.25 19.62 68.35 19.62 68.35 26.69 74.6 26.69 74.6 8.08 68.32 8.08 68.32 14.39"/>
          <path class="cls-1" d="M83.25,8.08l-7.33,18.61h6.62l.92-2.73h5.92l.97,2.73h6.81l-7.25-18.61h-6.65ZM84.96,19.18l1.52-4.6,1.5,4.6h-3.02Z"/>
          <polygon class="cls-1" points="107.83 8.08 105.02 13.55 102.07 8.08 94.53 8.08 101.55 19.07 101.55 26.69 107.8 26.69 107.8 19.07 115.19 8.08 107.83 8.08"/>
          <path class="cls-1" d="M119.89,8.08l-7.33,18.61h6.62l.92-2.73h5.92l.97,2.73h6.81l-7.25-18.61h-6.65ZM121.6,19.18l1.52-4.6,1.5,4.6h-3.02Z"/>
          <g>
            <path class="cls-2" d="M141.55,12.88c.28-.13.65-.2,1.1-.2.49,0,1.04.14,1.66.41.61.27,1.13.67,1.55,1.2l3.89-3.97c-.96-.89-2.08-1.58-3.35-2.05s-2.52-.71-3.75-.71c-.91,0-1.83.11-2.76.34-.93.23-1.77.6-2.51,1.12-.75.52-1.35,1.18-1.83,1.99-.47.81-.71,1.79-.71,2.95,0,.83.13,1.53.39,2.12.26.59.62,1.09,1.06,1.51.45.42.96.78,1.54,1.07.58.29,1.18.54,1.81.75.65.21,1.19.4,1.62.55.43.16.77.3,1.01.43.25.13.42.26.51.38.1.12.14.27.14.45,0,.33-.14.56-.43.68-.29.12-.61.18-.96.18-.77,0-1.52-.18-2.25-.55-.73-.37-1.31-.79-1.75-1.26l-3.81,4.14c.47.42,1.01.8,1.6,1.14.6.34,1.23.64,1.91.89.67.25,1.38.44,2.1.58.73.13,1.47.2,2.22.2.95,0,1.88-.14,2.79-.41s1.73-.68,2.46-1.24c.73-.55,1.31-1.24,1.76-2.08.45-.83.67-1.81.67-2.93,0-.96-.2-1.77-.6-2.42-.4-.65-.92-1.2-1.54-1.64-.62-.45-1.3-.81-2.04-1.09-.74-.28-1.44-.53-2.1-.74-.65-.21-1.12-.39-1.41-.53-.29-.14-.43-.35-.43-.63,0-.3.14-.51.42-.64Z"/>
            <path class="cls-2" d="M164.92,9.41c-.72-.48-1.53-.82-2.45-1.03-.91-.2-1.84-.3-2.79-.3h-7.99v18.61h6.23v-5.99h1.76c.96,0,1.91-.11,2.83-.34.92-.23,1.73-.6,2.44-1.1.71-.51,1.28-1.17,1.71-1.97.43-.81.64-1.79.64-2.94s-.22-2.21-.66-3.01c-.44-.8-1.02-1.44-1.73-1.92ZM160.54,15.59c-.39.24-.83.35-1.3.35h-1.31v-3h1.31c.23,0,.46.02.68.07.23.04.43.12.62.22.18.11.33.25.43.43.11.18.16.42.16.72,0,.56-.2.96-.59,1.2Z"/>
            <polygon class="cls-2" points="190.69 8.08 190.95 17.52 190.85 17.52 185.54 8.08 179.31 8.08 179.31 26.69 185.25 26.69 184.99 17.81 185.09 17.81 190.24 26.69 196.63 26.69 196.63 8.08 190.69 8.08"/>
            <rect class="cls-2" x="169.96" y="10.56" width="6.38" height="20"/>
            <path class="cls-2" d="M175.66,34.46c-.32-.31-.7-.56-1.13-.74-.43-.19-.89-.28-1.36-.28s-.93.09-1.36.28c-.43.18-.8.44-1.11.76-.31.32-.56.7-.74,1.13-.18.43-.27.88-.27,1.35,0,.49.1.95.29,1.37.19.42.44.79.75,1.11.31.32.68.57,1.09.74.42.17.87.26,1.35.26s.93-.09,1.36-.28c.43-.19.81-.43,1.13-.74.32-.31.57-.68.75-1.11.18-.43.27-.89.27-1.39s-.09-.92-.27-1.35c-.18-.43-.43-.8-.75-1.11Z"/>
          </g>
        </g>
        <g>
          <path class="cls-4" d="M18.31,26.74c-.47-.31-.88-.67-1.26-1.07-1.42-1.51-2.2-3.32-2.38-5.41-.14-1.68.17-3.29.81-4.83,1.98-4.7,5.41-7.63,10.23-8.84,1.65-.41,3.33-.55,5.02-.43,4.04.29,7.61,1.75,10.67,4.5,2.92,2.63,4.82,5.92,5.86,9.75.62,2.28.84,4.61.69,6.98-.04.66-.12,1.32-.19,1.98-.02,0-.04,0-.06,0,0-.4.02-.79,0-1.19-.17-3.76-1.46-7.12-3.58-10.14-1.54-2.19-3.42-4-5.66-5.41-2.16-1.36-4.48-2.26-7.01-2.51-3.55-.35-6.86.38-9.81,2.52-2.37,1.72-3.89,4.05-4.53,6.96-.36,1.63-.34,3.29.05,4.93.18.76.54,1.43,1.05,2.02.03.04.07.08.1.12,0,0,0,.02,0,.06Z"/>
          <path class="cls-6" d="M44.15,9.95c-.46-.4-.9-.81-1.37-1.2-2.48-2.06-5.24-3.55-8.36-4.28-1.75-.41-3.52-.53-5.31-.43-1.65.09-3.27.35-4.84.91-2.13.76-4.04,1.94-5.76,3.45-2.52,2.22-4.13,5.02-4.81,8.34-.93,4.59.39,8.45,3.84,11.51.83.74,1.82,1.21,2.83,1.63.43.17.86.34,1.29.51,0,.02,0,.04,0,.06-.71-.04-1.43-.04-2.13-.13-1.11-.14-2.2-.43-3.2-.94-2.22-1.14-3.87-2.87-4.98-5.15-1.06-2.17-1.5-4.47-1.32-6.88.33-4.44,2.12-8.17,5.23-11.23,2.07-2.04,4.56-3.34,7.32-4.12,1.97-.55,3.98-.78,6.02-.67,2.83.15,5.52.89,8.05,2.21,2.87,1.5,5.27,3.6,7.32,6.15.07.09.14.18.22.27l-.02.02Z"/>
          <path class="cls-7" d="M2.85,10.73c-.15.47-.3.91-.43,1.36-.59,2.04-.79,4.13-.66,6.26.26,4.01,1.63,7.59,4,10.75,2.13,2.84,4.83,4.92,8.17,6.04,1.68.56,3.41.85,5.18.74,1.76-.11,3.39-.65,4.91-1.55,1.87-1.11,3.39-2.59,4.47-4.52.83-1.47,1.29-3.07,1.41-4.77.03-.39.04-.79.11-1.2.1.41.25.82.31,1.24.5,3.45-.31,6.58-2.29,9.38-1.88,2.66-4.47,4.2-7.55,4.88-4.24.94-8.21.16-11.89-2.17-3.4-2.15-5.86-5.14-7.34-8.96C.25,25.61-.14,22.89.04,20.09c.2-3.02,1.02-5.85,2.37-8.53.13-.25.26-.51.39-.76,0-.02.02-.03.05-.07Z"/>
          <path class="cls-3" d="M19.92,0c-.59.28-1.15.53-1.69.81-1.81.95-3.52,2.07-5,3.52-1.85,1.83-3.16,4.02-4.02,6.5-.79,2.26-1.19,4.6-1.14,7.01.06,2.89.78,5.58,2.32,8.02.85,1.33,1.92,2.43,3.15,3.39,1.21.94,2.5,1.72,3.96,2.16,3.3.99,6.37.48,9.17-1.6.03-.02.05-.04.1-.04-.04.06-.08.12-.12.19-.91,1.34-2.13,2.28-3.51,3.04-1.83,1.02-3.78,1.43-5.85,1.28-1.74-.13-3.37-.65-4.88-1.54-4.13-2.44-6.72-6.08-7.79-10.84-.88-3.89-.32-7.64,1.26-11.25,1.26-2.88,3.15-5.25,5.63-7.11,1.07-.8,2.25-1.37,3.47-1.87,1.57-.65,3.19-1.15,4.81-1.63.03,0,.06-.01.13-.03Z"/>
          <path class="cls-5" d="M18.05,19.78c.71-2.69,2.13-4.77,4.42-6.19,1.67-1.03,3.46-1.64,5.4-1.8,3.41-.29,6.5.63,9.31,2.61,3.12,2.2,5.27,5.19,6.67,8.78.85,2.17,1.28,4.42,1.23,6.76-.07,3.4-1.06,6.49-2.88,9.31-1.14,1.76-2.56,3.27-4.11,4.65-.46.41-.95.8-1.42,1.21-.03.03-.07.05-.09.09.18-.2.35-.42.54-.61,2.4-2.4,3.87-5.33,4.64-8.67.41-1.77.53-3.58.38-5.39-.19-2.3-.83-4.47-1.78-6.55-1.22-2.66-2.99-4.86-5.31-6.57-1.8-1.34-3.81-2.19-6-2.57-1.11-.19-2.23-.15-3.34,0-1.42.18-2.77.59-3.99,1.36-1.41.89-2.6,2.05-3.57,3.44-.03.04-.05.07-.1.15Z"/>
          <path class="cls-8" d="M28.57,18.73c.52.2.95.47,1.35.8,2.17,1.84,3.55,4.16,4.14,7,.29,1.38.43,2.77.34,4.18-.13,1.88-.63,3.67-1.48,5.33-2.38,4.63-6.06,7.53-11.03,8.62-4.42.97-8.54.07-12.37-2.37-2.07-1.32-3.74-3.08-5.15-5.1-.62-.9-1.2-1.83-1.8-2.74-.02-.02-.03-.05-.06-.12.44.51.85,1,1.27,1.46,1.33,1.47,2.78,2.79,4.52,3.74,1.93,1.05,3.97,1.77,6.13,2.05,3.1.41,6.12.1,8.96-1.31,3.87-1.92,6.55-4.98,7.94-9.19.53-1.6.67-3.26.58-4.94-.06-1.14-.19-2.27-.56-3.35-.53-1.56-1.35-2.91-2.65-3.92-.03-.02-.05-.04-.07-.06,0,0-.02-.02-.05-.07Z"/>
          <path class="cls-2" d="M19,47.83c.35-.02.69-.05,1.04-.07,2.16-.17,4.24-.66,6.18-1.66,4.5-2.31,7.63-5.92,9.13-10.87,1.52-5.02.69-9.72-2.34-13.95-1.62-2.26-3.79-3.77-6.48-4.38-.78-.18-1.59-.24-2.39-.35-.06,0-.12-.01-.18-.02v-.05c.36-.09.72-.21,1.09-.27,1.69-.27,3.37-.24,5.03.22,1.41.39,2.64,1.13,3.78,2.05.98.8,1.92,1.65,2.69,2.66,1.01,1.32,1.7,2.82,2.27,4.39.69,1.89,1.04,3.84.98,5.86-.12,4.05-1.43,7.63-4.03,10.67-2.46,2.89-5.59,4.62-9.21,5.45-2.2.5-4.43.58-6.66.41-.29-.02-.59-.04-.88-.06,0-.01,0-.02,0-.03Z"/>
        </g>
      </g>
    </g>
  </g>
</svg>