<svg width="159" height="18" viewBox="0 0 159 18" fill="none" xmlns="http://www.w3.org/2000/svg">
<g clip-path="url(#clip0_2110_1400)">
<path d="M4.24 17.55C3.73 17.55 3.48 17.23 3.42 16.93C3.36 16.63 3.44 16.33 3.65 16.08L15.85 3.13H1.04C0.41 3.13 0 2.72 0 2.09V1.07C0 0.41 0.4 0 1.04 0H19.63C20.29 0 20.7 0.41 20.7 1.07V1.92C20.7 2.18 20.65 2.41 20.56 2.62C20.47 2.82 20.34 3.01 20.17 3.17L7.39 16.94C7.19 17.16 6.98 17.32 6.78 17.41C6.57 17.5 6.31 17.55 5.99 17.55H4.24Z" fill="white"/>
<path d="M26.2999 17.55C25.7899 17.55 25.5399 17.23 25.4799 16.93C25.4199 16.63 25.4999 16.33 25.7099 16.08L37.9099 3.11999H23.1099C22.4799 3.11999 22.0699 2.70999 22.0699 2.07999V1.05999C22.0699 0.39999 22.4699 -0.0100098 23.1099 -0.0100098H41.6999C42.3599 -0.0100098 42.7699 0.39999 42.7699 1.05999V1.90999C42.7699 2.16999 42.7199 2.39999 42.6299 2.60999C42.5399 2.80999 42.4099 2.99999 42.2399 3.15999L29.4599 16.93C29.2599 17.15 29.0499 17.31 28.8499 17.4C28.6399 17.49 28.3799 17.54 28.0599 17.54H26.3099L26.2999 17.55Z" fill="white"/>
<path d="M48.36 17.55C47.85 17.55 47.6 17.23 47.54 16.93C47.48 16.63 47.56 16.33 47.77 16.08L59.97 3.11999H45.17C44.54 3.11999 44.13 2.70999 44.13 2.07999V1.05999C44.13 0.39999 44.53 -0.0100098 45.17 -0.0100098H63.76C64.42 -0.0100098 64.83 0.39999 64.83 1.05999V1.90999C64.83 2.16999 64.78 2.39999 64.69 2.60999C64.6 2.80999 64.47 2.99999 64.3 3.15999L51.52 16.93C51.32 17.15 51.11 17.31 50.91 17.4C50.7 17.49 50.44 17.54 50.12 17.54H48.37L48.36 17.55Z" fill="white"/>
<path d="M71.9801 17.55C70.3001 17.55 68.9901 17.08 68.0701 16.15C67.1501 15.22 66.6801 13.9 66.6801 12.23V5.33001C66.6801 3.66001 67.1501 2.34001 68.0701 1.41001C68.9901 0.48001 70.3101 0.0100098 71.9801 0.0100098H86.5701C87.2401 0.0100098 87.6601 0.42001 87.6601 1.08001V2.17001C87.6601 2.84001 87.2401 3.26001 86.5701 3.26001H72.6001C71.7901 3.26001 71.1901 3.45001 70.8001 3.84001C70.4101 4.22001 70.2201 4.82001 70.2201 5.62001V7.15001H84.6901C85.3601 7.15001 85.7801 7.56001 85.7801 8.22001V9.33001C85.7801 9.99001 85.3601 10.4 84.6901 10.4H70.2201V11.96C70.2201 12.76 70.4201 13.36 70.8001 13.74C71.1901 14.12 71.7901 14.32 72.6001 14.32H86.5701C87.2401 14.32 87.6601 14.74 87.6601 15.41V16.5C87.6601 17.16 87.2401 17.57 86.5701 17.57H71.9801V17.55Z" fill="#FFE418"/>
<path d="M95.44 17.55C93.76 17.55 92.45 17.08 91.53 16.15C90.61 15.22 90.14 13.9 90.14 12.23V5.33001C90.14 3.66001 90.61 2.34001 91.53 1.41001C92.45 0.48001 93.77 0.0100098 95.44 0.0100098H109.67C110.33 0.0100098 110.74 0.42001 110.74 1.08001V2.17001C110.74 2.84001 110.33 3.26001 109.67 3.26001H96.05C95.24 3.26001 94.64 3.45001 94.25 3.84001C93.86 4.22001 93.67 4.82001 93.67 5.62001V11.96C93.67 12.76 93.87 13.36 94.25 13.74C94.64 14.12 95.24 14.32 96.05 14.32H109.67C110.33 14.32 110.74 14.74 110.74 15.41V16.5C110.74 17.16 110.33 17.57 109.67 17.57H95.44V17.55Z" fill="#FFE418"/>
<path d="M118.52 17.55C116.84 17.55 115.53 17.08 114.61 16.15C113.69 15.22 113.22 13.9 113.22 12.23V5.33001C113.22 3.66001 113.69 2.34001 114.61 1.41001C115.53 0.48001 116.85 0.0100098 118.52 0.0100098H132.76C133.42 0.0100098 133.83 0.42001 133.83 1.08001V2.17001C133.83 2.84001 133.42 3.26001 132.76 3.26001H119.14C118.33 3.26001 117.73 3.45001 117.34 3.84001C116.95 4.22001 116.76 4.82001 116.76 5.62001V11.96C116.76 12.76 116.96 13.36 117.34 13.74C117.73 14.12 118.34 14.32 119.14 14.32H132.76C133.42 14.32 133.83 14.74 133.83 15.41V16.5C133.83 17.16 133.42 17.57 132.76 17.57H118.52V17.55Z" fill="#FFE418"/>
<path d="M141.59 17.55C139.91 17.55 138.6 17.08 137.68 16.15C136.76 15.22 136.29 13.9 136.29 12.23V5.33001C136.29 3.66001 136.76 2.34001 137.68 1.41001C138.6 0.48001 139.92 0.0100098 141.59 0.0100098H152.87C154.56 0.0100098 155.89 0.48001 156.81 1.41001C157.73 2.34001 158.2 3.66001 158.2 5.33001V12.23C158.2 13.91 157.73 15.23 156.81 16.15C155.89 17.08 154.56 17.55 152.87 17.55H141.59ZM142.21 3.25001C141.4 3.25001 140.8 3.44001 140.41 3.83001C140.02 4.21001 139.83 4.81001 139.83 5.61001V11.95C139.83 12.75 140.03 13.35 140.41 13.73C140.8 14.11 141.41 14.31 142.21 14.31H152.28C153.91 14.31 154.64 13.58 154.64 11.95V5.61001C154.64 3.98001 153.91 3.25001 152.28 3.25001H142.21Z" fill="#FFE418"/>
</g>
<defs>
<clipPath id="clip0_2110_1400">
<rect width="158.2" height="17.55" fill="white"/>
</clipPath>
</defs>
</svg>
