<svg viewBox="0 0 24 24" fill="none" xmlns="http://www.w3.org/2000/svg" class="m-icon m-icon-loadable" name="Prematch" loading="false"><g clip-path="url(#clip0_13_267)"><path d="M7.7 6.87c.29 0 .54-.18.64-.43q.06-.12.06-.27v-2.6c0-.39-.31-.7-.7-.7s-.7.31-.7.7v2.6c0 .1.02.19.05.27.11.25.36.43.65.43" fill="currentColor"></path><path d="M19 4.13h-.6v2.04a2.1 2.1 0 1 1-4.2 0V4.13H9.8v2.04a2.1 2.1 0 1 1-4.2 0V4.13H5c-1.1 0-2 .9-2 2v13c0 1.1.9 2 2 2h14c1.1 0 2-.9 2-2v-13c0-1.1-.9-2-2-2M6.3 18.87c.66-.77 1.61-1.23 2.63-1.23s1.97.47 2.63 1.23a4.45 4.45 0 0 1-5.26 0m6.28-1.01a4.89 4.89 0 0 0-3.64-1.62c-1.4 0-2.72.6-3.64 1.62a4.46 4.46 0 0 1-.88-2.65c0-1 .34-1.91.89-2.66a4.87 4.87 0 0 0 3.63 1.62c1.39 0 2.71-.6 3.64-1.62.55.75.88 1.66.88 2.66-.01 1-.34 1.91-.88 2.65m-3.65-7.17c.98 0 1.88.32 2.62.85-.65.77-1.6 1.23-2.62 1.23s-1.96-.45-2.63-1.22c.75-.53 1.65-.86 2.63-.86m10.2 7.93c0 .33-.27.6-.6.6h-3.3c1.62-.94 2.97-2.3 3.9-3.93z" fill="currentColor"></path><path d="M16.3 6.87c.29 0 .54-.18.65-.43.03-.08.05-.17.05-.27v-2.6c0-.39-.32-.7-.7-.7s-.7.31-.7.7v2.6c0 .1.02.19.05.27.11.25.36.43.65.43" fill="currentColor"></path></g><defs><clipPath id="clip0_13_267"><rect width="18" height="18.26" fill="white" transform="translate(3 2.87)"></rect></clipPath></defs></svg>