<svg viewBox="0 0 24 24" fill="none" xmlns="http://www.w3.org/2000/svg" className="m-icon m-icon-loadable" name="TargetBigWins" >
                                    <path d="M21.6 9.908v-.005a5 5 0 0 0-.01-.294l-.006-.098q-.002-.049-.007-.097l-.003-.04a3 3 0 0 0-.015-.153l.026.026c-.137-1.282-.629-2.425-1.499-3.296l-2.4-2.402a5.078 5.078 0 0 0-1.838-1.165l-.054-.02-.114-.04q-.013-.004-.025-.009a6 6 0 0 0-1.24-.27l-.025-.002A7 7 0 0 0 13.604 2a8.4 8.4 0 0 0-1.723.183 9 9 0 0 0-.504.119 9 9 0 0 0-.51.148q-.126.04-.254.085-.255.089-.51.191c-1.532.616-3.06 1.616-4.412 2.969-2.437 2.44-3.728 5.449-3.69 8.026q0 .106.006.212v.002l.005.104a7 7 0 0 0 .136 1.013l.005.022a5 5 0 0 0 .069.283 5 5 0 0 0 .129.412l.022.063q.05.139.11.275l.035.081.007.015.039.083.043.088a3 3 0 0 0 .093.18 5 5 0 0 0 .357.558v.002a4 4 0 0 0 .282.348q.096.11.2.213l2.4 2.402q.102.102.21.197.035.033.072.064l.03.025q.033.029.066.055l.055.044.07.053.028.022.09.066.024.017.132.09.073.047a4 4 0 0 0 .233.14l.101.054.023.012a3 3 0 0 0 .172.086 6 6 0 0 0 .396.17 4 4 0 0 0 .305.107l.014.004.053.016.096.03q.052.013.103.027l.055.014q.4.106.823.157l-.005-.005.028.003.041.004q.16.018.323.028l.023.001a6 6 0 0 0 .424.012l.15-.001q.067 0 .136-.004h.018l.134-.007q.069-.004.137-.009l.097-.008a8 8 0 0 0 .666-.083 10 10 0 0 0 .379-.07l.096-.02.256-.06.012.012q.193-.048.386-.103a11 11 0 0 0 2.035-.81l-.014-.014q.158-.08.314-.166.509-.279 1.007-.613l.098-.067.004-.003a9 9 0 0 0 .393-.28l.097-.072a13 13 0 0 0 .388-.303q.192-.156.382-.32l.188-.167a15 15 0 0 0 1.44-1.497l.091-.11a14 14 0 0 0 1.053-1.483l.07-.116q.065-.108.127-.216l.01-.018.067-.118q.165-.294.308-.59l.02.02.025-.052q.15-.309.279-.619a10.7 10.7 0 0 0 .584-1.853l-.022-.022v-.001l.03-.15q.032-.154.056-.309.114-.72.106-1.407M10.971 20.276q-.501.072-.974.072c-.91 0-2.196-.203-3.16-1.169l-.312-.312-.639-.655c.962.116 1.974.117 3.023 0l.014-.001.976.975 1.086 1.088zm.34-5.986-1.602-.869a.78.78 0 0 0-.647-.044l-1.75.664c-.664.252-1.291-.444-.972-1.079l.764-1.521a.78.78 0 0 0-.001-.702l-.739-1.464a.78.78 0 0 1 .546-1.117l2.653-.518a.8.8 0 0 0 .408-.222l1.874-1.927a.779.779 0 0 1 1.326.406l.213 1.19a.78.78 0 0 0 .592.622l1.19.275a.78.78 0 0 1 .3 1.378l-2.04 1.573a.77.77 0 0 0-.273.4l-.723 2.487a.78.78 0 0 1-1.12.468m8.25-.934a10 10 0 0 1-.16.35 12.3 12.3 0 0 1-2.389 3.32 12.5 12.5 0 0 1-2.823 2.135 12 12 0 0 1-.652.33l-.568-.569-1.153-1.153a13.8 13.8 0 0 0 3.013-2.296c1.207-1.207 2.176-2.61 2.804-4.047l.005-.011 1.33 1.33.599.6zm.738-2.69L19.205 9.57l-.844-.851c.102-.911.115-1.794.043-2.64l.76.762c.9.9 1.294 2.241 1.135 3.825" fill="currentColor"></path>
                                </svg>