<svg viewBox="0 0 24 24" fill="none" xmlns="http://www.w3.org/2000/svg" class="m-icon m-icon-loadable" name="Calendar" loading="false"><path fill-rule="evenodd" clip-rule="evenodd" d="M7.566 4h8.868A3.566 3.566 0 0 1 20 7.566v.576H4v-.576A3.566 3.566 0 0 1 7.566 4m0 16A3.566 3.566 0 0 1 4 16.434v-6.95h16v6.95A3.566 3.566 0 0 1 16.434 20zm9.631-7.825a.934.934 0 1 0-1.868 0 .934.934 0 0 0 1.868 0m-4.263 0a.934.934 0 1 0-1.868 0 .934.934 0 0 0 1.868 0m0 3.679a.934.934 0 1 0-1.868 0 .934.934 0 0 0 1.868 0m-4.262-3.679a.934.934 0 1 0-1.869 0 .934.934 0 0 0 1.869 0m0 3.679a.934.934 0 1 0-1.869 0 .934.934 0 0 0 1.869 0" fill="currentColor"></path></svg>