            <svg
              viewBox="0 0 24 24"
              fill="none"
              xmlns="http://www.w3.org/2000/svg"
              className="m-icon m-icon-loadable"
              name="CashbackWallet"
            >
              <path
                fillRule="evenodd"
                clipRule="evenodd"
                d="M17.27 6.931h.108l-3.655-3.658a.93.93 0 0 0-1.318 0L8.75 6.931zm2.757 5.44v-.88a3.05 3.05 0 0 0-3.043-3.045H5.179c-.325 0-.722-.229-.816-.47a1 1 0 0 0-.046-.094l-.042-.069a1.154 1.154 0 0 1 1.12-.882h1.432l1.279-1.244H5.395a2.4 2.4 0 0 0-.863.16v.001l-.099.04a2.4 2.4 0 0 0-.74.511 2 2 0 0 0-.108.117l-.067.081a2.4 2.4 0 0 0-.3.488l-.005.011q-.145.319-.193.68a.6.6 0 0 0-.02.156v6.206a4.96 4.96 0 0 1 5.73-1.27c.61.269 1.153.652 1.612 1.138a4.96 4.96 0 0 1 1.36 3.42 4.96 4.96 0 0 1-1.683 3.733h6.965a3.05 3.05 0 0 0 3.043-3.046v-.77A1.78 1.78 0 0 0 21 15.758v-1.802c0-.69-.396-1.29-.973-1.585m-.27 3.387q0 .02-.002.038a.5.5 0 0 1-.022.12.4.4 0 0 1-.034.082l-.023.04-.018.028a1 1 0 0 1-.048.058v.001a.5.5 0 0 1-.132.101 1 1 0 0 1-.071.032h-.002a1 1 0 0 1-.086.024h-.003a.4.4 0 0 1-.092.008h-3.062a1.435 1.435 0 0 1 0-2.867h3.062q.024 0 .047.002a.4.4 0 0 1 .091.016l.045.015.036.014.035.018a.4.4 0 0 1 .065.041l.004.003.004.003.058.053.02.022a.5.5 0 0 1 .113.22.4.4 0 0 1 .015.126zm-9.358.997a3.7 3.7 0 0 1-.002 1.352A3.72 3.72 0 0 1 9.431 20a3.72 3.72 0 0 1-2.701 1.16A3.731 3.731 0 0 1 3 17.426a3.731 3.731 0 0 1 6.44-2.566c.486.515.828 1.168.959 1.893m-2.754 2.98 1.196-1.197H8.84a.433.433 0 0 0-.611-.612l-.458.458V17.23a2.026 2.026 0 0 0-2.019-2.022H5.27a.433.433 0 0 0 0 .866h.482a1.157 1.157 0 0 1 1.154 1.156v1.24l-.691-.61a.43.43 0 0 0-.61.04.433.433 0 0 0 .038.61l1.41 1.243.004.002.027.023h.001l.029.02.01.005.031.016q.015.008.03.013a.4.4 0 0 0 .113.027l.039.002h.002a.4.4 0 0 0 .08-.008q.005 0 .01-.002l.032-.008a.4.4 0 0 0 .111-.05l.013-.01a.4.4 0 0 0 .06-.049"
                fill="currentColor"
              />
            </svg>