<svg
    viewBox="0 0 24 24"
    fill="none"
    xmlns="http://www.w3.org/2000/svg"
    className="m-icon m-icon-loadable"
    name="AllGames"

>
    <path
        d="M6.5 22c2.485 0 4.5-2.04 4.5-4.557a4.57 4.57 0 0 0-1.035-2.907c.848-.885 1.774-2.32 2.496-3.976.729-1.673 1.285-3.656 1.326-5.659q.267.189.531.468c.468.496.886 1.167 1.243 1.921.602 1.273.98 2.683 1.13 3.644C14.592 11.32 13 13.181 13 15.418c0 2.517 2.015 4.557 4.5 4.557s4.5-2.04 4.5-4.557c0-2.274-1.645-4.16-3.795-4.502-.151-1.128-.586-2.79-1.291-4.282-.398-.84-.898-1.664-1.51-2.314-.18-.19-.374-.37-.58-.531l.913-.309a.76.76 0 0 0 .475-.96.75.75 0 0 0-.949-.48l-4.5 1.518a.76.76 0 0 0-.474.96.75.75 0 0 0 .948.481l1.052-.355c.005 1.815-.495 3.684-1.2 5.303-.71 1.627-1.585 2.912-2.262 3.595a4.44 4.44 0 0 0-2.327-.656c-2.485 0-4.5 2.04-4.5 4.557S4.015 22 6.5 22"
        fill="currentColor"
    />
</svg>