<svg width="32" height="34" viewBox="0 0 32 34" fill="none" xmlns="http://www.w3.org/2000/svg">
<rect x="0.941406" y="14.1567" width="30.1176" height="18.8235" rx="2" fill="#FDFFFF"/>
<path d="M14.6816 20.8079H17.4926C15.9677 22.6371 15.1486 24.9521 15.1836 27.3334C15.1836 27.4665 15.2365 27.5942 15.3306 27.6883C15.4248 27.7824 15.5524 27.8353 15.6856 27.8353C15.8187 27.8353 15.9464 27.7824 16.0405 27.6883C16.1346 27.5942 16.1875 27.4665 16.1875 27.3334C16.1604 26.0914 16.3977 24.8579 16.8835 23.7147C17.3693 22.5714 18.0927 21.5445 19.0055 20.702C19.088 20.6377 19.1484 20.5493 19.1782 20.4491C19.2081 20.3489 19.2059 20.2419 19.1719 20.143C19.138 20.0441 19.074 19.9582 18.9889 19.8975C18.9038 19.8367 18.8019 19.804 18.6973 19.804H14.6816C14.5485 19.804 14.4208 19.8568 14.3267 19.951C14.2326 20.0451 14.1797 20.1728 14.1797 20.3059C14.1797 20.439 14.2326 20.5667 14.3267 20.6609C14.4208 20.755 14.5485 20.8079 14.6816 20.8079Z" fill="#EEF0F0"/>
<path d="M10.64 20.1433C10.6061 20.0443 10.5421 19.9584 10.4569 19.8975C10.3718 19.8367 10.2698 19.804 10.1651 19.804H6.14942C6.01629 19.804 5.88862 19.8568 5.79448 19.951C5.70035 20.0451 5.64746 20.1728 5.64746 20.3059C5.64746 20.439 5.70035 20.5667 5.79448 20.6609C5.88862 20.755 6.01629 20.8079 6.14942 20.8079H8.9604C7.43552 22.6371 6.61637 24.9521 6.65138 27.3334C6.65138 27.4665 6.70427 27.5942 6.7984 27.6883C6.89254 27.7824 7.02021 27.8353 7.15334 27.8353C7.28647 27.8353 7.41415 27.7824 7.50828 27.6883C7.60242 27.5942 7.6553 27.4665 7.6553 27.3334C7.6282 26.0914 7.86543 24.8579 8.35127 23.7147C8.8371 22.5714 9.56044 21.5445 10.4733 20.702C10.5558 20.6378 10.6162 20.5494 10.6461 20.4493C10.6759 20.3491 10.6738 20.2422 10.64 20.1433Z" fill="#EEF0F0"/>
<path d="M23.2158 20.8079H26.0268C24.5019 22.6371 23.6828 24.9521 23.7178 27.3334C23.7178 27.4665 23.7707 27.5942 23.8648 27.6883C23.9589 27.7824 24.0866 27.8353 24.2197 27.8353C24.3529 27.8353 24.4806 27.7824 24.5747 27.6883C24.6688 27.5942 24.7217 27.4665 24.7217 27.3334C24.6946 26.0914 24.9318 24.8579 25.4177 23.7147C25.9035 22.5714 26.6268 21.5445 27.5397 20.702C27.6222 20.6377 27.6826 20.5493 27.7124 20.4491C27.7422 20.3489 27.74 20.2419 27.7061 20.143C27.6722 20.0441 27.6082 19.9582 27.5231 19.8975C27.438 19.8367 27.3361 19.804 27.2315 19.804H23.2158C23.0827 19.804 22.955 19.8568 22.8609 19.951C22.7668 20.0451 22.7139 20.1728 22.7139 20.3059C22.7139 20.439 22.7668 20.5667 22.8609 20.6609C22.955 20.755 23.0827 20.8079 23.2158 20.8079Z" fill="#EEF0F0"/>
<path d="M28.9887 16.855H4.89455C4.62829 16.855 4.37294 16.9608 4.18467 17.149C3.99639 17.3373 3.89063 17.5926 3.89062 17.8589V30.9099C3.89063 31.1761 3.99639 31.4315 4.18467 31.6198C4.37294 31.808 4.62829 31.9138 4.89455 31.9138H28.9887C29.2549 31.9138 29.5103 31.808 29.6985 31.6198C29.8868 31.4315 29.9926 31.1761 29.9926 30.9099V17.8589C29.9926 17.5926 29.8868 17.3373 29.6985 17.149C29.5103 16.9608 29.2549 16.855 28.9887 16.855ZM20.9573 17.8589V30.9099H12.9259V17.8589H20.9573ZM4.89455 17.8589H11.922V30.9099H4.89455V17.8589ZM28.9887 30.9099H21.9612V17.8589H28.9887V30.9099Z" fill="#EEF0F0"/>
<path d="M28.8 13.2156H3.2C2.35157 13.2164 1.53813 13.5612 0.938194 14.1741C0.338261 14.787 0.000847163 15.6181 0 16.4849L0 30.6521C0.000847163 31.5189 0.338261 32.35 0.938194 32.9629C1.53813 33.5759 2.35157 33.9206 3.2 33.9215H28.8C29.6484 33.9206 30.4619 33.5759 31.0618 32.9629C31.6617 32.35 31.9992 31.5189 32 30.6521V16.4849C31.9992 15.6181 31.6617 14.787 31.0618 14.1741C30.4619 13.5612 29.6484 13.2164 28.8 13.2156ZM30.9333 30.6521C30.9333 31.2302 30.7086 31.7845 30.3085 32.1933C29.9084 32.602 29.3658 32.8317 28.8 32.8317H3.2C2.6342 32.8317 2.09158 32.602 1.69151 32.1933C1.29143 31.7845 1.06667 31.2302 1.06667 30.6521V16.4849C1.06667 15.9069 1.29143 15.3525 1.69151 14.9437C2.09158 14.535 2.6342 14.3054 3.2 14.3054H28.8C29.3658 14.3054 29.9084 14.535 30.3085 14.9437C30.7086 15.3525 30.9333 15.9069 30.9333 16.4849V30.6521Z" fill="#9C9C9C"/>
<path d="M28.0473 15.9138H3.95314C3.68688 15.9138 3.43153 16.0196 3.24326 16.2079C3.05499 16.3961 2.94922 16.6515 2.94922 16.9177V29.9687C2.94922 30.235 3.05499 30.4903 3.24326 30.6786C3.43153 30.8669 3.68688 30.9726 3.95314 30.9726H28.0473C28.3135 30.9726 28.5689 30.8669 28.7571 30.6786C28.9454 30.4903 29.0512 30.235 29.0512 29.9687V16.9177C29.0512 16.6515 28.9454 16.3961 28.7571 16.2079C28.5689 16.0196 28.3135 15.9138 28.0473 15.9138ZM20.0159 16.9177V29.9687H11.9845V16.9177H20.0159ZM3.95314 16.9177H10.9806V29.9687H3.95314V16.9177ZM28.0473 29.9687H21.0198V16.9177H28.0473V29.9687Z" fill="#9C9C9C"/>
<path d="M18.5491 7.39873C18.4831 7.46664 18.4338 7.54929 18.4054 7.63998C18.3769 7.73067 18.37 7.82685 18.3853 7.92073L18.8888 11.0194L16.2895 9.57636C16.2009 9.52717 16.1014 9.50137 16.0002 9.50137C15.8991 9.50137 15.7995 9.52717 15.7109 9.57636L13.1116 11.0194L13.6146 7.92073C13.6299 7.8269 13.6231 7.73075 13.5947 7.64006C13.5664 7.54937 13.5172 7.46669 13.4513 7.39873L11.2949 5.17871L14.2507 4.72453C14.348 4.70959 14.4402 4.67074 14.5191 4.61139C14.598 4.55204 14.6613 4.47402 14.7033 4.3842L16.0008 1.60767L17.2984 4.3842C17.3403 4.47402 17.4036 4.55204 17.4825 4.61139C17.5614 4.67074 17.6536 4.70959 17.7509 4.72453L20.7067 5.17871L18.5491 7.39873Z" fill="#FDFFFF"/>
<path d="M27.6658 8.79886C27.6196 8.8464 27.5851 8.90425 27.5652 8.96774C27.5453 9.03122 27.5405 9.09855 27.5511 9.16426L27.9036 11.3334L26.0841 10.3232C26.022 10.2888 25.9524 10.2707 25.8816 10.2707C25.8108 10.2707 25.7411 10.2888 25.6791 10.3232L23.8596 11.3334L24.2116 9.16426C24.2224 9.09858 24.2176 9.03127 24.1977 8.96779C24.1779 8.90431 24.1435 8.84644 24.0974 8.79886L22.5879 7.24485L24.657 6.92692C24.7251 6.91647 24.7896 6.88927 24.8448 6.84772C24.9001 6.80618 24.9443 6.75157 24.9737 6.68869L25.882 4.74512L26.7903 6.68869C26.8197 6.75157 26.864 6.80618 26.9192 6.84772C26.9744 6.88927 27.039 6.91647 27.1071 6.92692L29.1761 7.24485L27.6658 8.79886Z" fill="#FDFFFF"/>
<path d="M7.90117 8.79886C7.85495 8.8464 7.82048 8.90425 7.80055 8.96774C7.78063 9.03122 7.7758 9.09855 7.78647 9.16426L8.13895 11.3334L6.31944 10.3232C6.2574 10.2888 6.18774 10.2707 6.11694 10.2707C6.04614 10.2707 5.97648 10.2888 5.91444 10.3232L4.09493 11.3334L4.44698 9.16426C4.45771 9.09858 4.45295 9.03127 4.4331 8.96779C4.41325 8.90431 4.37886 8.84644 4.33271 8.79886L2.82324 7.24485L4.89231 6.92692C4.96042 6.91647 5.02494 6.88927 5.08018 6.84772C5.13541 6.80618 5.17968 6.75157 5.20907 6.68869L6.11736 4.74512L7.02565 6.68869C7.05504 6.75157 7.09931 6.80618 7.15455 6.84772C7.20978 6.88927 7.2743 6.91647 7.34241 6.92692L9.41148 7.24485L7.90117 8.79886Z" fill="#FDFFFF"/>
<path d="M21.5911 4.88892C21.533 4.70965 21.4261 4.55007 21.2825 4.42801C21.1389 4.30595 20.9642 4.22621 20.7779 4.19771L18.1135 3.79225L16.918 1.25501C16.8374 1.07939 16.7081 0.930586 16.5454 0.82627C16.3828 0.721953 16.1936 0.666504 16.0003 0.666504C15.8071 0.666504 15.6179 0.721953 15.4552 0.82627C15.2926 0.930586 15.1633 1.07939 15.0827 1.25501L13.886 3.79225L11.2228 4.19715C11.0366 4.22613 10.862 4.3061 10.7185 4.4282C10.5749 4.55031 10.468 4.70977 10.4096 4.88892C10.347 5.07278 10.3366 5.2704 10.3795 5.45981C10.4225 5.64922 10.5172 5.82301 10.653 5.96187L12.5962 7.944L12.1365 10.7495C12.1032 10.9432 12.1254 11.1424 12.2007 11.324C12.276 11.5056 12.4011 11.6622 12.5617 11.7756C12.7152 11.8848 12.8964 11.9485 13.0845 11.959C13.2726 11.9696 13.4598 11.9268 13.6245 11.8354L16.0003 10.5276L18.3773 11.8349C18.542 11.9262 18.7292 11.9691 18.9172 11.9587C19.1053 11.9482 19.2865 11.8847 19.4401 11.7756C19.6008 11.662 19.7261 11.5053 19.8015 11.3235C19.8768 11.1417 19.8992 10.9423 19.8659 10.7484L19.4051 7.94344L21.3494 5.96074C21.4849 5.82195 21.5793 5.64827 21.622 5.45904C21.6646 5.2698 21.654 5.07244 21.5911 4.88892ZM18.3982 7.35727C18.336 7.42059 18.2897 7.49767 18.2629 7.58224C18.2361 7.66681 18.2296 7.7565 18.244 7.84405L18.7178 10.7337L16.272 9.38797C16.1886 9.34209 16.0949 9.31804 15.9998 9.31804C15.9046 9.31804 15.811 9.34209 15.7276 9.38797L13.2818 10.7337L13.755 7.84405C13.7694 7.75655 13.763 7.66688 13.7363 7.58231C13.7096 7.49774 13.6634 7.42065 13.6014 7.35727L11.5723 5.28704L14.3536 4.86351C14.4452 4.84958 14.5319 4.81334 14.6061 4.758C14.6804 4.70265 14.7399 4.6299 14.7794 4.54614L16.0003 1.95694L17.2213 4.54614C17.2608 4.6299 17.3203 4.70265 17.3945 4.758C17.4688 4.81334 17.5555 4.84958 17.6471 4.86351L20.4283 5.28704L18.3982 7.35727Z" fill="#9C9C9C"/>
<path d="M10.306 7.23376C10.2564 7.08172 10.1657 6.94641 10.0438 6.84291C9.922 6.7394 9.77385 6.67175 9.61586 6.64748L8.06533 6.41169L7.36707 4.92918C7.2983 4.78047 7.18843 4.65455 7.05044 4.5663C6.91245 4.47805 6.7521 4.43115 6.58833 4.43115C6.42456 4.43115 6.26421 4.47805 6.12622 4.5663C5.98823 4.65455 5.87836 4.78047 5.80959 4.92918L5.11133 6.41169L3.56022 6.64748C3.40234 6.67185 3.2543 6.73955 3.13257 6.84305C3.01083 6.94655 2.92017 7.08179 2.87064 7.23376C2.81845 7.38822 2.81008 7.55413 2.84647 7.71306C2.88286 7.87199 2.96257 8.01772 3.07676 8.13404L4.2139 9.2927L3.94467 10.938C3.9165 11.1013 3.93523 11.2693 3.99867 11.4224C4.06211 11.5755 4.16766 11.7075 4.30306 11.8029C4.43372 11.8958 4.58796 11.9498 4.74798 11.9587C4.908 11.9676 5.06728 11.9311 5.20744 11.8533L6.58833 11.0938L7.96922 11.8533C8.10928 11.9314 8.26861 11.9682 8.42871 11.9593C8.5888 11.9503 8.74308 11.8961 8.8736 11.8029C9.009 11.7075 9.11455 11.5755 9.17799 11.4224C9.24143 11.2693 9.26016 11.1013 9.23199 10.938L8.96218 9.29791L10.0987 8.13925C10.2142 8.02265 10.2948 7.87608 10.3314 7.71608C10.368 7.55608 10.3592 7.38902 10.306 7.23376ZM7.93216 8.69309C7.86848 8.75817 7.82104 8.83736 7.79367 8.92423C7.76631 9.0111 7.7598 9.1032 7.77468 9.19305L7.99643 10.5475L6.86972 9.92707C6.78422 9.88001 6.68822 9.85533 6.59064 9.85533C6.49307 9.85533 6.39707 9.88001 6.31157 9.92707L5.18486 10.5475L5.40661 9.19305C5.42149 9.1032 5.41498 9.0111 5.38762 8.92423C5.36025 8.83736 5.31281 8.75817 5.24913 8.69309L4.28511 7.70823L5.59247 7.50894C5.68628 7.49471 5.77516 7.45762 5.85128 7.40095C5.92741 7.34428 5.98844 7.26976 6.02903 7.18394L6.58833 5.99573L7.14995 7.18741C7.19053 7.27323 7.25157 7.34775 7.32769 7.40443C7.40382 7.4611 7.49269 7.49818 7.58651 7.51242L8.89386 7.71171L7.93216 8.69309Z" fill="#9C9C9C"/>
<path d="M29.1292 7.23378C29.0792 7.082 28.9883 6.94697 28.8665 6.84353C28.7448 6.7401 28.5968 6.67226 28.4391 6.64749L26.8886 6.4117L26.1903 4.92919C26.1215 4.78047 26.0117 4.65455 25.8737 4.5663C25.7357 4.47805 25.5753 4.43115 25.4116 4.43115C25.2478 4.43115 25.0875 4.47805 24.9495 4.5663C24.8115 4.65455 24.7016 4.78047 24.6329 4.92919L23.9346 6.4117L22.3835 6.64749C22.2258 6.67236 22.0781 6.74024 21.9564 6.84367C21.8348 6.9471 21.744 7.08208 21.694 7.23378C21.6417 7.38823 21.6333 7.55416 21.6697 7.7131C21.7061 7.87205 21.7858 8.01777 21.9001 8.13406L23.0372 9.29273L22.7685 10.9375C22.7401 11.1007 22.7587 11.2687 22.822 11.4219C22.8854 11.575 22.9909 11.707 23.1264 11.8024C23.2568 11.8958 23.411 11.9502 23.5711 11.9592C23.7313 11.9683 23.8907 11.9315 24.0307 11.8534L25.4116 11.0939L26.7924 11.8534C26.9325 11.9315 27.0919 11.9681 27.252 11.9591C27.4121 11.9501 27.5664 11.8957 27.6968 11.8024C27.8321 11.7071 27.9376 11.5754 28.001 11.4225C28.0645 11.2696 28.0833 11.1018 28.0552 10.9386L27.7854 9.29794L28.9225 8.13927C29.0378 8.02257 29.1182 7.87597 29.1548 7.71599C29.1913 7.556 29.1824 7.389 29.1292 7.23378ZM26.7554 8.69312C26.6917 8.75808 26.6442 8.83715 26.6167 8.92391C26.5893 9.01068 26.5826 9.10269 26.5973 9.1925L26.8191 10.5476L25.6924 9.9271C25.6069 9.88004 25.5109 9.85536 25.4133 9.85536C25.3157 9.85536 25.2197 9.88004 25.1343 9.9271L24.0076 10.5476L24.2293 9.1925C24.244 9.10269 24.2374 9.01068 24.2099 8.92391C24.1824 8.83715 24.1349 8.75808 24.0712 8.69312L23.1078 7.70825L24.4152 7.50896C24.509 7.49473 24.5978 7.45764 24.674 7.40097C24.7501 7.3443 24.8111 7.26977 24.8517 7.18395L25.4116 5.99574L25.9732 7.18743C26.0138 7.27325 26.0748 7.34777 26.1509 7.40444C26.2271 7.46112 26.3159 7.4982 26.4097 7.51244L27.7171 7.71173L26.7554 8.69312Z" fill="#9C9C9C"/>
<path d="M13.9922 20.4314H16.8032C15.2783 22.2607 14.4591 24.5757 14.4942 26.9569C14.4942 27.09 14.547 27.2177 14.6412 27.3118C14.7353 27.406 14.863 27.4589 14.9961 27.4589C15.1292 27.4589 15.2569 27.406 15.3511 27.3118C15.4452 27.2177 15.4981 27.09 15.4981 26.9569C15.471 25.715 15.7082 24.4815 16.194 23.3382C16.6799 22.1949 17.4032 21.168 18.3161 20.3255C18.3986 20.2613 18.459 20.1729 18.4888 20.0726C18.5186 19.9724 18.5164 19.8654 18.4825 19.7665C18.4485 19.6676 18.3845 19.5818 18.2995 19.521C18.2144 19.4602 18.1124 19.4275 18.0079 19.4275H13.9922C13.8591 19.4275 13.7314 19.4804 13.6373 19.5745C13.5431 19.6686 13.4902 19.7963 13.4902 19.9295C13.4902 20.0626 13.5431 20.1903 13.6373 20.2844C13.7314 20.3785 13.8591 20.4314 13.9922 20.4314Z" fill="#9C9C9C"/>
<path d="M9.94953 19.7668C9.91563 19.6678 9.85163 19.5819 9.76649 19.521C9.68135 19.4602 9.57932 19.4275 9.47468 19.4275H5.45899C5.32586 19.4275 5.19819 19.4804 5.10405 19.5745C5.00992 19.6686 4.95703 19.7963 4.95703 19.9295C4.95703 20.0626 5.00992 20.1903 5.10405 20.2844C5.19819 20.3785 5.32586 20.4314 5.45899 20.4314H8.26997C6.74509 22.2607 5.92594 24.5757 5.96095 26.9569C5.96095 27.09 6.01384 27.2177 6.10797 27.3118C6.20211 27.406 6.32979 27.4589 6.46291 27.4589C6.59604 27.4589 6.72372 27.406 6.81785 27.3118C6.91199 27.2177 6.96487 27.09 6.96487 26.9569C6.93777 25.715 7.175 24.4815 7.66084 23.3382C8.14667 22.1949 8.87001 21.168 9.78288 20.3255C9.86536 20.2613 9.92576 20.173 9.95563 20.0728C9.98551 19.9727 9.98337 19.8657 9.94953 19.7668Z" fill="#9C9C9C"/>
<path d="M22.5254 20.4314H25.3364C23.8115 22.2607 22.9923 24.5757 23.0274 26.9569C23.0274 27.09 23.0802 27.2177 23.1744 27.3118C23.2685 27.406 23.3962 27.4589 23.5293 27.4589C23.6624 27.4589 23.7901 27.406 23.8843 27.3118C23.9784 27.2177 24.0313 27.09 24.0313 26.9569C24.0042 25.715 24.2414 24.4815 24.7272 23.3382C25.2131 22.1949 25.9364 21.168 26.8493 20.3255C26.9318 20.2613 26.9922 20.1729 27.022 20.0726C27.0518 19.9724 27.0496 19.8654 27.0157 19.7665C26.9817 19.6676 26.9177 19.5818 26.8327 19.521C26.7476 19.4602 26.6456 19.4275 26.5411 19.4275H22.5254C22.3923 19.4275 22.2646 19.4804 22.1705 19.5745C22.0763 19.6686 22.0234 19.7963 22.0234 19.9295C22.0234 20.0626 22.0763 20.1903 22.1705 20.2844C22.2646 20.3785 22.3923 20.4314 22.5254 20.4314Z" fill="#9C9C9C"/>
</svg>
