<svg viewBox="0 0 24 24" fill="none" xmlns="http://www.w3.org/2000/svg" class="m-icon m-icon-loadable" name="Copy" width="20" height="20"><path fill-rule="evenodd" clip-rule="evenodd" d="M21.788 5.303c.113.541.185 1.1.194 1.654.026 1.545.022 3.091.002 4.636-.012.864-.144 1.716-.508 2.514-.538 1.18-1.483 1.84-2.707 2.146q-.105.025-.212.046c-.331.068-.59-.041-.743-.311a.7.7 0 0 1-.092-.34v-4.191c0-2.864-2.31-5.187-5.16-5.187H8.372a.7.7 0 0 1-.261-.061c-.304-.136-.437-.43-.359-.797.249-1.163.79-2.13 1.847-2.74.749-.432 1.571-.623 2.42-.654.644-.023 1.288-.018 1.932-.012q.42.003.838.004v-.002q.41 0 .82-.004c.63-.004 1.26-.009 1.89.01.77.022 1.518.18 2.218.52 1.162.565 1.813 1.532 2.072 2.77m-7.468 2.86c1.112.611 1.695 1.603 1.921 2.816.105.563.154 1.143.163 1.717.018 1.12.014 2.242.01 3.362l-.003.814c-.003.785-.085 1.562-.334 2.311-.474 1.428-1.475 2.274-2.912 2.602a7.5 7.5 0 0 1-1.545.198c-1.602.025-3.206.016-4.808.006a6.5 6.5 0 0 1-1.909-.293c-1.49-.468-2.358-1.504-2.705-3.012C2.038 17.982 2 17.27 2 16.552v-1.377q-.002-1.29.006-2.58c.006-.914.115-1.814.485-2.66.518-1.185 1.447-1.872 2.672-2.189.668-.173 1.35-.229 2.038-.233q.645-.003 1.294 0h.588q.086 0 .173.002c.094.004.357.006.696.009.629.005 1.518.012 2.074.032.803.029 1.58.215 2.294.607" fill="currentColor"></path></svg>