<svg viewBox="0 0 24 24" fill="none" xmlns="http://www.w3.org/2000/svg" class="m-icon m-icon-loadable" name="CrownVip" loading="false"><path d="m20.995 8.332-.704 8.176a2.61 2.61 0 0 1-2.609 2.379H6.227a2.635 2.635 0 0 1-2.61-2.406l-.613-8.17c-.033-.39.156-.765.49-.974.336-.21.756-.214 1.095-.012l2.27 1.355c.431.257.623.77.467 1.245l-.003.008c-.135.415-.107.858.078 1.242.18.376.492.651.875.776.34.11.696.093 1.032-.049a1.63 1.63 0 0 0 .737-.626q.12-.185.189-.399c.184-.568-.54-1.824-1.128-2.558a.62.62 0 0 1 .09-.941l2.066-2.07c.199-.199.463-.308.744-.308s.544.11.743.308l2.15 2.138a.617.617 0 0 1 .001.877l-.054.054c-.786 1.017-1.23 2.044-1.082 2.5q.07.216.192.405c.182.282.44.498.744.625.333.137.686.153 1.021.044.384-.125.695-.4.876-.776.185-.384.212-.827.077-1.245a1.06 1.06 0 0 1 .464-1.242l2.273-1.356a1.05 1.05 0 0 1 1.1.015c.335.212.521.59.484.985" fill="currentColor"></path></svg>