<svg viewBox="0 0 24 24" fill="none" xmlns="http://www.w3.org/2000/svg"
    class="m-icon m-icon-loadable nav-dropdown-item__icon" name="SignOutExit" loading="false">
    <path fill-rule="evenodd" clip-rule="evenodd"
        d="M11.69 21.946c1.722-.253 3.11-1.53 3.555-3.26.182-.705.157-1.423.126-2.14-.017-.42-.373-.689-.789-.66H9.544c-1.736 0-3.144-1.446-3.144-3.228V11.35c0-1.783 1.408-3.228 3.144-3.228h5.08c.4.017.752-.3.756-.725v-.103c.005-.508.01-1.02-.054-1.52-.265-2.088-2.078-3.738-4.125-3.763-1.189-.016-2.378-.011-3.567-.007l-.74.003H6.71c-.34-.001-.682-.002-1.015.049-2.142.324-3.692 2.18-3.693 4.401-.002 3.464-.004 6.927.002 10.391v.063c0 .46.001.925.066 1.379.291 2.05 2.057 3.656 4.082 3.693 1.223.023 2.446.018 3.669.013l1.327-.004c.18 0 .362-.02.542-.046m7.275-11.238.53.542v.001H9.588c-.444 0-.772.316-.774.742-.002.436.323.757.775.757h9.72a1 1 0 0 1 .098.007l.045.005c-.022.058-.053.088-.082.116l-.018.018-.132.134q-.66.674-1.319 1.353a.755.755 0 0 0-.084.961c.265.393.79.432 1.142.075q1.405-1.429 2.803-2.864c.322-.331.316-.777-.007-1.11l-.648-.664q-.233-.236-.463-.474L18.966 8.59c-.223-.229-.485-.317-.788-.21a.75.75 0 0 0-.282 1.23c.35.366.704.727 1.069 1.1"
        fill="currentColor"></path>
</svg>