<svg viewBox="0 0 24 24" fill="none" xmlns="http://www.w3.org/2000/svg" class="m-icon m-icon-loadable" name="Category" loading="false"><path fill-rule="evenodd" clip-rule="evenodd" d="M13.323 4.615c-.103 1.1-.08 2.201-.025 3.302.022.449.108.888.305 1.297.344.718.951 1.092 1.693 1.286.68.178 1.375.21 2.07.219.82.01 1.638-.006 2.443-.189 1.23-.279 1.894-.962 2.065-2.209.06-.437.078-.88.096-1.323q.011-.303.028-.605a24 24 0 0 1-.023-.619c-.014-.515-.03-1.028-.127-1.538-.185-.96-.723-1.613-1.655-1.93-.6-.202-1.22-.264-1.847-.287-.932-.036-1.863-.036-2.783.145-.566.111-1.093.315-1.513.733-.476.473-.667 1.072-.727 1.718m-11.288.249a74 74 0 0 0 0 3.05c.01.506.123 1 .379 1.448.36.631.934.96 1.613 1.138s1.375.21 2.07.22c.824.01 1.648-.005 2.456-.192.585-.136 1.114-.375 1.509-.849.366-.44.529-.965.574-1.52.033-.406.048-.813.065-1.254q.011-.302.025-.63l-.027-.503c-.022-.435-.046-.908-.095-1.379-.057-.541-.257-1.037-.643-1.444-.43-.455-.98-.67-1.575-.787C7.574 2 6.751 1.99 5.927 2.008c-.626.013-1.25.052-1.86.208-.668.173-1.24.489-1.612 1.097-.29.476-.408 1.007-.42 1.551M22 17.656q-.017.309-.03.615c-.018.449-.036.893-.096 1.33-.167 1.238-.836 1.932-2.054 2.204-.93.21-1.875.21-2.822.181-.63-.02-1.257-.072-1.866-.255-1.051-.316-1.625-1.032-1.784-2.103-.113-.762-.099-1.528-.084-2.294l.005-.287a10 10 0 0 1 .126-1.574c.192-1.078.88-1.71 1.923-1.976.629-.16 1.271-.2 1.917-.212.809-.014 1.618-.005 2.416.153.49.098.952.26 1.349.577.53.424.798 1 .87 1.655.05.462.074.926.097 1.386q.014.3.033.6m-11.3-.585c-.024-.463-.047-.929-.095-1.392-.057-.547-.259-1.047-.649-1.457-.43-.454-.982-.665-1.577-.784-.77-.155-1.551-.167-2.333-.155-.701.01-1.401.046-2.081.24-.73.207-1.312.599-1.638 1.312-.195.426-.281.88-.297 1.343a52 52 0 0 0-.028 2.189c.003.422.028.848.085 1.266.146 1.074.734 1.786 1.784 2.1.605.18 1.227.233 1.853.253.95.03 1.9.028 2.836-.181 1.212-.271 1.896-.988 2.049-2.209.055-.438.074-.882.093-1.33q.011-.305.03-.612z" fill="currentColor"></path></svg>