                  <svg
                    viewBox="0 0 24 24"
                    fill="none"
                    xmlns="http://www.w3.org/2000/svg"
                    className="m-icon m-icon-loadable"
                    name="Inform"
                  >
                    <path
                      d="M12.074 2A9.99 9.99 0 0 0 2 11.968c-.027 5.488 4.439 10 9.92 10.032 5.548.034 10.038-4.413 10.08-9.888C22.042 6.527 17.602 2.02 12.074 2M12 17.5c-.437.005-.752-.339-.753-.829-.003-1.307 0-2.614-.002-3.92 0-.49-.01-.98-.002-1.469.01-.616.608-.98 1.124-.688.256.146.38.376.38.67v3.488l-.002.417q-.002.482.001.964l.003.256v.019l.005.265c.01.482-.335.821-.754.826M11.986 9a1 1 0 0 1-.978-1.011.99.99 0 0 1 .994-.99c.545-.003 1 .445 1.004.987A1.01 1.01 0 0 1 11.986 9"
                      fill="currentColor"
                    />
                  </svg>