<svg viewBox="0 0 24 24" fill="none" xmlns="http://www.w3.org/2000/svg" class="m-icon m-icon-loadable" name="ClipboardList"><path d="M16.397 4.718h-.743a1.85 1.85 0 0 0-1.68-1.074h-.136a1.84 1.84 0 0 0-.53-1.102A1.84 1.84 0 0 0 12 2c-.95 0-1.734.72-1.838 1.644h-.136c-.495 0-.96.192-1.308.542a1.8 1.8 0 0 0-.372.532h-.743A2.604 2.604 0 0 0 5 7.323v11.93a2.604 2.604 0 0 0 2.603 2.604h8.794A2.604 2.604 0 0 0 19 19.253V7.323a2.604 2.604 0 0 0-2.603-2.605m-6.946.776a.57.57 0 0 1 .575-.575h.762a.634.634 0 0 0 .638-.638v-.43a.575.575 0 0 1 1.149 0v.43a.637.637 0 0 0 .637.638h.763a.576.576 0 0 1 0 1.15h-3.95a.573.573 0 0 1-.574-.575M8.148 9.377h7.704a.638.638 0 0 1 0 1.276H8.148a.638.638 0 0 1 0-1.276m.019 3.536h7.703a.638.638 0 0 1 0 1.276H8.167a.638.638 0 0 1 0-1.276m7.722 4.812H8.185a.638.638 0 0 1 0-1.276h7.704a.638.638 0 0 1 0 1.276" fill="currentColor"></path></svg>