            <svg
              viewBox="0 0 24 24"
              fill="none"
              xmlns="http://www.w3.org/2000/svg"
              className="m-icon m-icon-loadable"
              name="LockClosed"
            >
              <path
                fillRule="evenodd"
                clipRule="evenodd"
                d="M6.75 9.01V7.5a5.25 5.25 0 1 1 10.5 0v1.51A3 3 0 0 1 20 12v6a3 3 0 0 1-3 3H7a3 3 0 0 1-3-3v-6a3 3 0 0 1 2.75-2.99m1.5-1.51a3.75 3.75 0 1 1 7.5 0V9h-7.5zm5.25 6.532a1.5 1.5 0 0 1-.75 1.3v1.386a.75.75 0 0 1-1.5 0v-1.387a1.5 1.5 0 1 1 2.25-1.3"
                fill="currentColor"
              />
            </svg>