<svg xmlns="http://www.w3.org/2000/svg" width="33" height="38" viewBox="0 0 33 38"><g stroke="#9C9C9C" fill="none" fill-rule="evenodd"><path d="M16.5 1l-.161.092A106.33 106.33 0 018.78 5.007a94.713 94.713 0 01-7.554 3.159l-.198.072-.006.204C.636 23.17 5.078 32.511 16.286 36.825l.465.175.12-.053c10.815-4.72 15.784-14.137 15.06-28.09l-.035-.62-.19-.07A97.35 97.35 0 0124.168 5a106.83 106.83 0 01-6.666-3.433L16.5 1z" fill="#FDFFFF" fill-rule="nonzero"></path><path d="M16.234 14.324c1.489 0 2.696 1.233 2.696 2.753a2.754 2.754 0 01-1.684 2.552l1.957 5.59a.397.397 0 01-.234.504.38.38 0 01-.13.023h-5.146a.39.39 0 01-.367-.518l1.814-5.635a2.756 2.756 0 01-1.601-2.516c0-1.52 1.207-2.753 2.695-2.753z" fill="#EEF0F0"></path><g stroke-linecap="square"><path d="M16.75 5s3.016 1.721 5.027 2.734c1.34.674 3.175 1.515 5.503 2.522"></path><path d="M5.75 10.256s3.684-1.675 5.394-2.522C12.854 6.887 16.25 5 16.25 5"></path></g></g></svg>