<svg viewBox="0 0 24 24" fill="none" xmlns="http://www.w3.org/2000/svg" class="m-icon m-icon-loadable" name="Edit"><path fill-rule="evenodd" clip-rule="evenodd" d="M15.828 3.942c1.218-1.216 3.009-1.262 4.25-.096.618.58.909 1.314.918 2.112-.01.882-.314 1.592-.902 2.18l-.332.332-.665.664-1.062-1.062-2.102-2.102-1.067-1.067.481-.48zM3.875 16.63c.175-.69.536-1.274 1.039-1.777v.002l4.821-4.82 4.019-4.018 4.23 4.231q-1.972 1.973-3.945 3.946l-4.931 4.931c-.557.557-1.229.888-1.99 1.069-.755.179-1.507.368-2.26.558l-.853.214c-.665.166-1.137-.297-.972-.963.277-1.125.555-2.25.842-3.373" fill="currentColor"></path></svg>