<svg xmlns="http://www.w3.org/2000/svg" width="37" height="26" viewBox="0 0 37 26"><g fill="none" fill-rule="evenodd"><rect width="36" height="25" x=".5" y=".5" fill="#FDFFFF" stroke="#9C9C9C" rx="3"></rect><path fill="#EEF0F0" d="M3 1h31.01a2 2 0 012 2v1.58H1V3a2 2 0 012-2z" opacity=".75"></path><g fill="#9C9C9C"><path d="M8.003 17.733c0 .567-.448 1.027-1.001 1.027C6.448 18.76 6 18.3 6 17.733s.448-1.027 1.002-1.027c.553 0 1.001.46 1.001 1.027"></path><path d="M13.726 11.866c0 .567-.448 1.026-1.001 1.026-.553 0-1.002-.46-1.002-1.026 0-.568.449-1.027 1.002-1.027.553 0 1.001.46 1.001 1.027"></path><path d="M20.126 18.426c0 .567-.448 1.027-1.002 1.027-.553 0-1.001-.46-1.001-1.027s.448-1.027 1.001-1.027c.554 0 1.002.46 1.002 1.027"></path><path d="M29.556 8.79c0 .568-.448 1.027-1.001 1.027-.553 0-1.002-.46-1.002-1.027s.449-1.026 1.002-1.026c.553 0 1.001.46 1.001 1.026"></path></g><path stroke="#9C9C9C" stroke-width=".5" d="M7.002 17.733l5.723-5.867 6.4 6.56 9.43-9.636"></path></g></svg>