<svg
    viewBox="0 0 24 24"
    fill="none"
    xmlns="http://www.w3.org/2000/svg"
    className="m-icon m-icon-loadable"
    name="SupportOutline"

>
    <path
        d="M12 18.75a.75.75 0 1 0 0 1.5.75.75 0 0 0 0-1.5m5.5-8.5v-1a5.5 5.5 0 1 0-11 0v1H9a1 1 0 0 1 1 1v4a1 1 0 0 1-1 1H6.5v.25a2.25 2.25 0 0 0 2.096 2.245l.154.005h1.128a2.251 2.251 0 1 1 0 1.5H8.75a3.75 3.75 0 0 1-3.745-3.55L5 16.5V9.25a7 7 0 0 1 14 0v5a2 2 0 0 1-1.85 1.994l-.15.006h-2a1 1 0 0 1-.993-.883L14 15.25v-4a1 1 0 0 1 .883-.993L15 10.25zm-9 1.5h-2v3h2zm9 0h-2v3H17a.5.5 0 0 0 .492-.41l.008-.09z"
        fill="currentColor"
    />
</svg>