<svg
                viewBox="0 0 24 24"
                fill="none"
                xmlns="http://www.w3.org/2000/svg"
                className="m-icon m-icon-loadable profile-nav-item__icon"
                name="Person"
              >
                <path
                  d="M17.754 14a2.25 2.25 0 0 1 2.25 2.249v.918a2.75 2.75 0 0 1-.513 1.599C17.945 20.929 15.42 22 12 22c-3.422 0-5.945-1.072-7.487-3.237a2.75 2.75 0 0 1-.51-1.595v-.92a2.25 2.25 0 0 1 2.249-2.25zM12 2.004a5 5 0 1 1 0 10 5 5 0 0 1 0-10"
                  fill="currentColor"
                />
              </svg>