<svg viewBox="0 0 24 24" fill="none" xmlns="http://www.w3.org/2000/svg" class="m-icon m-icon-loadable game-screen-controls__item" name="Window2"><path fill-rule="evenodd" clip-rule="evenodd" d="M6.75 21.5a.75.75 0 0 1-.102-1.493L6.75 20h1.749v-2.498H4.25a2.25 2.25 0 0 1-2.245-2.096L2 15.252V4.75a2.25 2.25 0 0 1 2.096-2.245L4.25 2.5h15.499a2.25 2.25 0 0 1 2.245 2.096l.005.154v10.502a2.25 2.25 0 0 1-2.096 2.245l-.154.005h-4.25V20h1.751a.75.75 0 0 1 .102 1.493l-.102.007zm7.248-3.998h-4L9.999 20h4zM5 6a.5.5 0 0 1 .5-.5H11a.5.5 0 0 1 .5.5v8a.5.5 0 0 1-.5.5H5.5A.5.5 0 0 1 5 14zm8-.5a.5.5 0 0 0-.5.5v8a.5.5 0 0 0 .5.5h5.5a.5.5 0 0 0 .5-.5V6a.5.5 0 0 0-.5-.5z" fill="currentColor"></path></svg>