<svg viewBox="0 0 24 24" fill="none" xmlns="http://www.w3.org/2000/svg" class="m-icon m-icon-loadable game-screen-controls__item" name="Window"><path fill-rule="evenodd" clip-rule="evenodd" d="M6 20.75c0 .415.336.75.75.75h10.5l.102-.007A.75.75 0 0 0 17.25 20h-1.751v-2.498h4.25l.154-.005a2.25 2.25 0 0 0 2.096-2.245V4.75l-.005-.154A2.25 2.25 0 0 0 19.749 2.5H4.25l-.154.005A2.25 2.25 0 0 0 2 4.75v10.502l.005.154a2.25 2.25 0 0 0 2.245 2.096h4.249V20H6.75l-.102.007A.75.75 0 0 0 6 20.75m3.998-3.248h4L13.999 20h-4zM5.5 5.5A.5.5 0 0 0 5 6v8a.5.5 0 0 0 .5.5h13a.5.5 0 0 0 .5-.5V6a.5.5 0 0 0-.5-.5z" fill="currentColor"></path></svg>