<svg width="130" height="129" viewBox="0 0 130 129" fill="none" xmlns="http://www.w3.org/2000/svg">
<path d="M40.53 20.6499L15.5 45.6799H42.17L53.91 20.6499H40.53Z" fill="#EE4036"/>
<path d="M57.98 15.3101C58.62 15.3101 59.27 15.4801 59.77 15.8901C60.77 16.7001 61.04 18.0301 60.53 19.1201L48.08 45.6901H82.41C83.05 45.6901 83.7 45.8601 84.2 46.2701C85.2 47.0801 85.47 48.4101 84.96 49.5001L72.51 76.0701H105.08C105.72 76.0701 106.37 76.2401 106.87 76.6501C107.87 77.4601 108.14 78.7901 107.63 79.8801L98.17 100.06L126.77 71.4601C130.68 67.5501 130.68 61.2201 126.77 57.3201L72.39 2.93006C68.48 -0.979941 62.15 -0.979941 58.25 2.93006L45.87 15.3101H57.98Z" fill="#116E51"/>
<path d="M70 81.3999L52.08 119.64L58.25 125.81C62.16 129.72 68.49 129.72 72.39 125.81L87.05 111.15L101 81.3999H70Z" fill="#FAAF40"/>
<path d="M66.6 76.06L78.34 51.03H45.57L33.84 76.06H66.6Z" fill="#F05A28"/>
<path d="M64.1 81.3999H31.33L25.75 93.3099L48.06 115.62L64.1 81.3999Z" fill="#8BC53F"/>
<path d="M8.49001 76.06H27.93L39.66 51.03H10.15L3.88001 57.3C-0.0299902 61.21 -0.0299902 67.54 3.88001 71.44L8.49001 76.05V76.06Z" fill="#F6921E"/>
<path d="M25.43 81.3999H13.84L21.73 89.2899L25.43 81.3999Z" fill="#8BC53F"/>
</svg>
